<svg width="1920" height="1080" viewBox="0 0 1920 1080" fill="none" xmlns="http://www.w3.org/2000/svg">
<g opacity="0.2">
<path d="M868.748 792.689L976.554 787.572L1017.72 744.299L1096.61 812.863L1127.48 780.409L1161.98 778.771L1289.6 644.625L1340.31 688.702L1412.35 612.975L1634.37 805.934L1716.7 719.388L1752.76 750.732L1847.63 746.229" stroke="url(#paint0_linear)" stroke-width="1.35814"/>
<ellipse cx="976.527" cy="786.958" rx="4.98475" ry="4.98161" transform="rotate(-2.71734 976.527 786.958)" fill="#1C83FF"/>
<ellipse cx="1097.22" cy="812.124" rx="9.27923" ry="9.2734" transform="rotate(-2.71734 1097.22 812.124)" fill="#2F80ED"/>
<ellipse cx="1340.55" cy="685.617" rx="13.6474" ry="13.6389" transform="rotate(-2.71734 1340.55 685.617)" fill="#4C91E3"/>
<path d="M1363.36 684.523C1363.95 697.11 1354.23 707.8 1341.63 708.398C1329.03 708.996 1318.34 699.275 1317.74 686.688C1317.14 674.1 1326.87 663.411 1339.47 662.813C1352.06 662.215 1362.76 671.935 1363.36 684.523Z" stroke="#4C91E3" stroke-width="1.21715"/>
<path d="M1114.14 811.314C1114.59 820.659 1107.37 828.594 1098.01 829.038C1088.66 829.482 1080.72 822.266 1080.28 812.921C1079.84 803.577 1087.06 795.641 1096.41 795.197C1105.76 794.753 1113.7 801.97 1114.14 811.314Z" stroke="#2F80ED" stroke-width="1.21715"/>
<path d="M1646.54 803.353C1646.85 809.942 1641.76 815.538 1635.17 815.851C1628.57 816.164 1622.97 811.075 1622.66 804.486C1622.35 797.897 1627.44 792.301 1634.03 791.989C1640.63 791.676 1646.23 796.764 1646.54 803.353Z" stroke="#4C91E3" stroke-width="0.608577"/>
<ellipse cx="1413.05" cy="612.933" rx="9.67017" ry="9.66409" transform="rotate(-2.71734 1413.05 612.933)" fill="#CFE5FF"/>
<path d="M1641.62 803.593C1641.8 807.468 1638.81 810.759 1634.93 810.943C1631.05 811.127 1627.76 808.134 1627.58 804.259C1627.39 800.385 1630.39 797.094 1634.27 796.91C1638.14 796.726 1641.44 799.718 1641.62 803.593Z" fill="#4C91E3" stroke="#258CFF" stroke-width="1.21715"/>
<path d="M1726.29 720.182C1726.54 725.417 1722.5 729.863 1717.26 730.112C1712.02 730.36 1707.57 726.317 1707.32 721.082C1707.07 715.847 1711.12 711.401 1716.36 711.152C1721.6 710.904 1726.05 714.947 1726.29 720.182Z" fill="#1C83FF" stroke="#258CFF" stroke-width="1.21715"/>
<path d="M1758.67 750.009C1758.83 753.242 1756.33 755.987 1753.09 756.141C1749.86 756.294 1747.11 753.798 1746.96 750.565C1746.81 747.333 1749.3 744.587 1752.54 744.434C1755.77 744.28 1758.52 746.777 1758.67 750.009Z" fill="#1C83FF" stroke="#258CFF" stroke-width="1.21715"/>
<ellipse cx="1289.42" cy="644.952" rx="6.41166" ry="6.40763" transform="rotate(-2.71734 1289.42 644.952)" fill="#4672A7"/>
<ellipse cx="1018.11" cy="745.471" rx="6.30384" ry="6.29987" transform="rotate(-2.71734 1018.11 745.471)" fill="#1C83FF"/>
<ellipse cx="1127.48" cy="779.795" rx="6.30384" ry="6.29987" transform="rotate(-2.71734 1127.48 779.795)" fill="#1C83FF"/>
<ellipse cx="1162.42" cy="778.143" rx="4.46851" ry="4.4657" transform="rotate(-2.71734 1162.42 778.143)" fill="#2F80ED"/>
</g>
<g opacity="0.2">
<path d="M1001.01 599.702L1098.54 595.073L1135.78 555.924L1207.15 617.954L1235.09 588.592L1266.3 587.111L1381.75 465.749L1427.63 505.626L1492.81 437.115L1693.66 611.685L1768.15 533.387L1800.78 561.744L1886.6 557.67" stroke="url(#paint1_linear)" stroke-width="1.22871"/>
<ellipse cx="1098.52" cy="594.522" rx="4.5097" ry="4.50687" transform="rotate(-2.71734 1098.52 594.522)" fill="#1C83FF"/>
<ellipse cx="1207.71" cy="617.287" rx="8.39492" ry="8.38964" transform="rotate(-2.71734 1207.71 617.287)" fill="#2F80ED"/>
<ellipse cx="1427.85" cy="502.838" rx="12.3468" ry="12.3391" transform="rotate(-2.71734 1427.85 502.838)" fill="#4C91E3"/>
<path d="M1448.48 501.846C1449.02 513.234 1440.22 522.904 1428.83 523.445C1417.43 523.986 1407.75 515.192 1407.21 503.804C1406.67 492.416 1415.47 482.746 1426.87 482.205C1438.26 481.664 1447.94 490.458 1448.48 501.846Z" stroke="#4C91E3" stroke-width="1.10116"/>
<path d="M1223.02 616.554C1223.42 625.008 1216.89 632.187 1208.43 632.588C1199.97 632.99 1192.78 626.462 1192.38 618.008C1191.98 609.554 1198.51 602.374 1206.97 601.973C1215.43 601.571 1222.62 608.1 1223.02 616.554Z" stroke="#2F80ED" stroke-width="1.10116"/>
<path d="M1704.68 609.351C1704.96 615.312 1700.35 620.375 1694.39 620.658C1688.42 620.941 1683.36 616.338 1683.08 610.376C1682.79 604.415 1687.4 599.353 1693.36 599.07C1699.33 598.786 1704.39 603.39 1704.68 609.351Z" stroke="#4C91E3" stroke-width="0.55058"/>
<ellipse cx="1493.44" cy="437.08" rx="8.7486" ry="8.7431" transform="rotate(-2.71734 1493.44 437.08)" fill="#CFE5FF"/>
<path d="M1700.23 609.569C1700.39 613.075 1697.68 616.052 1694.18 616.219C1690.67 616.385 1687.69 613.678 1687.52 610.172C1687.36 606.667 1690.06 603.69 1693.57 603.523C1697.08 603.357 1700.06 606.064 1700.23 609.569Z" fill="#4C91E3" stroke="#258CFF" stroke-width="1.10116"/>
<path d="M1776.83 534.106C1777.06 538.842 1773.4 542.864 1768.66 543.089C1763.92 543.314 1759.89 539.657 1759.67 534.92C1759.44 530.184 1763.1 526.162 1767.84 525.937C1772.58 525.712 1776.61 529.37 1776.83 534.106Z" fill="#1C83FF" stroke="#258CFF" stroke-width="1.10116"/>
<path d="M1806.13 561.09C1806.27 564.014 1804.01 566.498 1801.08 566.637C1798.15 566.776 1795.67 564.517 1795.53 561.593C1795.39 558.669 1797.65 556.185 1800.58 556.046C1803.5 555.907 1805.99 558.166 1806.13 561.09Z" fill="#1C83FF" stroke="#258CFF" stroke-width="1.10116"/>
<ellipse cx="1381.59" cy="466.047" rx="5.80063" ry="5.79699" transform="rotate(-2.71734 1381.59 466.047)" fill="#4672A7"/>
<ellipse cx="1136.14" cy="556.985" rx="5.70308" ry="5.6995" transform="rotate(-2.71734 1136.14 556.985)" fill="#1C83FF"/>
<ellipse cx="1235.09" cy="588.036" rx="5.70308" ry="5.6995" transform="rotate(-2.71734 1235.09 588.036)" fill="#1C83FF"/>
<ellipse cx="1266.69" cy="586.543" rx="4.04266" ry="4.04012" transform="rotate(-2.71734 1266.69 586.543)" fill="#2F80ED"/>
</g>
<defs>
<linearGradient id="paint0_linear" x1="2123.19" y1="733.988" x2="869.374" y2="793.497" gradientUnits="userSpaceOnUse">
<stop stop-color="#4C91E3" stop-opacity="0"/>
<stop offset="0.546875" stop-color="#4C91E3"/>
<stop offset="1" stop-color="#4C91E3" stop-opacity="0"/>
</linearGradient>
<linearGradient id="paint1_linear" x1="2135.91" y1="546.595" x2="1001.58" y2="600.433" gradientUnits="userSpaceOnUse">
<stop stop-color="#4C91E3" stop-opacity="0"/>
<stop offset="0.546875" stop-color="#4C91E3"/>
<stop offset="1" stop-color="#4C91E3" stop-opacity="0"/>
</linearGradient>
</defs>
</svg>
