<svg width="1918" height="1084" viewBox="0 0 1918 1084" fill="none" xmlns="http://www.w3.org/2000/svg">
<g clip-path="url(#clip0)">
<g opacity="0.2">
<path fill-rule="evenodd" clip-rule="evenodd" d="M1910.75 45.1125C2005.52 36.806 2079.01 -7.91519 2074.9 -54.775C2070.8 -101.635 1990.64 -132.889 1895.87 -124.582C1801.1 -116.276 1727.61 -71.5544 1731.71 -24.6945C1734.82 10.6974 1781.3 37.187 1844.69 44.4541L969.024 556.644C893.378 497.878 751.26 465.823 592.148 479.769C448.1 492.394 324.328 539.726 254.493 601.279L-2.49969 505.501L-1.05186 522.02L242.304 612.716C208.616 646.456 190.879 683.89 194.211 721.905C204.168 835.498 398.473 911.26 628.203 891.124C857.934 870.988 1036.1 762.58 1026.14 648.987C1023.47 618.522 1007.54 590.778 981.221 566.875L1871.19 46.3199C1883.96 46.6786 1897.2 46.2995 1910.75 45.1125ZM593.086 490.469C746.105 477.057 882.534 508.522 953.427 565.767L840.149 632.025C806.786 584.477 710.287 555.991 599.684 565.685C504.599 574.019 424.689 608.327 388.517 651.229L270.997 607.43C336.821 548.218 455.144 502.56 593.086 490.469ZM215.838 720.01C212.76 684.89 228.652 650.291 259.025 618.947L379.344 663.789C370.792 677.583 366.727 692.046 368.007 706.656C373.804 772.789 486.927 816.897 620.675 805.174C754.423 793.451 858.148 730.336 852.351 664.203C851.773 657.603 850.125 651.222 847.495 645.093L965.303 576.186C988.239 598.122 1002.1 623.329 1004.51 650.883C1013.95 758.56 845.065 861.334 627.265 880.424C409.466 899.514 225.276 827.686 215.838 720.01ZM-5858.85 2039.5C-5809.99 2035.21 -5772.11 2012.16 -5774.23 1988.01C-5776.34 1963.85 -5817.66 1947.74 -5866.51 1952.02C-5915.36 1956.3 -5953.25 1979.36 -5951.13 2003.51C-5949.02 2027.67 -5907.7 2043.78 -5858.85 2039.5ZM-3556.23 2066.63C-3552.28 2111.6 -3622.81 2154.51 -3713.75 2162.48C-3804.69 2170.45 -3881.6 2140.46 -3885.54 2095.5C-3889.48 2050.53 -3818.96 2007.62 -3728.02 1999.65C-3637.08 1991.68 -3560.17 2021.67 -3556.23 2066.63ZM-3431.05 2055.58C-3424.11 2134.76 -3548.29 2210.33 -3708.44 2224.36C-3868.59 2238.4 -4004.02 2185.59 -4010.96 2106.41C-4017.9 2027.24 -3893.72 1951.67 -3733.57 1937.63C-3573.42 1923.6 -3437.99 1976.41 -3431.05 2055.58ZM-3409.42 2053.69C-3401.97 2138.78 -3535.42 2219.98 -3707.5 2235.06C-3879.59 2250.15 -4025.13 2193.4 -4032.59 2108.31C-4040.05 2023.22 -3906.59 1942.02 -3734.51 1926.93C-3562.43 1911.85 -3416.88 1968.6 -3409.42 2053.69ZM5833.32 1499.46C5947.47 1489.46 6035.98 1435.59 6031.04 1379.16C6026.09 1322.72 5929.55 1285.08 5815.4 1295.08C5701.25 1305.09 5612.74 1358.95 5617.68 1415.39C5622.63 1471.82 5719.17 1509.47 5833.32 1499.46ZM5833.79 1504.81C5953.9 1494.28 6047.06 1437.6 6041.85 1378.21C6036.65 1318.82 5935.05 1279.2 5814.94 1289.73C5694.82 1300.26 5601.67 1356.94 5606.87 1416.33C5612.08 1475.73 5713.67 1515.34 5833.79 1504.81ZM5959.9 1385.4C5963.15 1422.41 5905.1 1457.73 5830.25 1464.29C5755.4 1470.85 5692.09 1446.17 5688.84 1409.16C5685.6 1372.15 5743.65 1336.83 5818.5 1330.27C5893.35 1323.71 5956.66 1348.39 5959.9 1385.4ZM7298.32 655.876C7397.36 647.196 7474.16 600.463 7469.87 551.494C7465.58 502.526 7381.82 469.866 7282.78 478.546C7183.75 487.226 7106.94 533.96 7111.23 582.928C7115.53 631.897 7199.29 664.557 7298.32 655.876ZM8042.81 778.441C8045.56 809.806 7996.37 839.741 7932.93 845.301C7869.5 850.86 7815.85 829.941 7813.1 798.575C7810.35 767.209 7859.54 737.275 7922.98 731.715C7986.41 726.155 8040.06 747.075 8042.81 778.441ZM-5116.27 1636.85C-5054.49 1631.44 -5006.58 1602.29 -5009.25 1571.74C-5011.93 1541.19 -5064.18 1520.82 -5125.96 1526.23C-5187.74 1531.65 -5235.65 1560.8 -5232.98 1591.35C-5230.3 1621.89 -5178.05 1642.27 -5116.27 1636.85ZM-3069.13 1750.9C-3066.45 1781.45 -3114.36 1810.6 -3176.14 1816.02C-3237.92 1821.43 -3290.17 1801.06 -3292.85 1770.51C-3295.53 1739.96 -3247.62 1710.81 -3185.84 1705.4C-3124.06 1699.98 -3071.81 1720.35 -3069.13 1750.9ZM-2556.96 1745.55C-2513.17 1741.71 -2479.2 1721.04 -2481.1 1699.39C-2483 1677.74 -2520.04 1663.29 -2563.83 1667.13C-2607.62 1670.97 -2641.59 1691.64 -2639.69 1713.29C-2637.79 1734.94 -2600.75 1749.39 -2556.96 1745.55Z" fill="url(#paint0_linear)"/>
</g>
</g>
<g opacity="0.2">
<path d="M1041.16 201.44L926.605 201.44L880.783 245.247L800.594 168.585L766.228 201.44L729.57 201.44L587.522 337.242L535.972 287.959L455.783 364.621L230.11 148.871L138.465 236.485L101.808 201.44L0.999061 201.44" stroke="url(#paint1_linear)" stroke-width="1.29348"/>
<ellipse cx="926.601" cy="202.095" rx="5.29084" ry="5.28751" transform="rotate(-180 926.601 202.095)" fill="white"/>
<ellipse cx="799.91" cy="169.333" rx="9.84903" ry="9.84283" transform="rotate(-180 799.91 169.333)" fill="white"/>
<ellipse cx="535.563" cy="291.223" rx="14.4855" ry="14.4764" transform="rotate(-180 535.563 291.223)" fill="white"/>
<path d="M511.26 291.229C511.26 277.816 522.14 266.943 535.562 266.943C548.983 266.943 559.863 277.816 559.863 291.229C559.863 304.641 548.983 315.514 535.562 315.514C522.14 315.514 511.26 304.641 511.26 291.229Z" stroke="white" stroke-width="1.15921"/>
<path d="M781.86 169.343C781.86 159.377 789.944 151.297 799.917 151.297C809.891 151.297 817.975 159.377 817.975 169.343C817.975 179.309 809.891 187.389 799.917 187.389C789.944 187.389 781.86 179.309 781.86 169.343Z" stroke="white" stroke-width="1.15921"/>
<path d="M217.039 150.999C217.039 143.979 222.734 138.288 229.758 138.288C236.783 138.288 242.478 143.979 242.478 150.999C242.478 158.019 236.783 163.71 229.758 163.71C222.734 163.71 217.039 158.019 217.039 150.999Z" stroke="white" stroke-width="0.579604"/>
<ellipse cx="455.032" cy="364.629" rx="10.264" ry="10.2575" transform="rotate(-180 455.032 364.629)" fill="white"/>
<ellipse cx="229.76" cy="150.992" rx="8.10664" ry="8.10155" transform="rotate(-180 229.76 150.992)" fill="white"/>
<ellipse cx="138.408" cy="235.16" rx="10.7258" ry="10.7191" transform="rotate(-180 138.408 235.16)" fill="white"/>
<ellipse cx="101.724" cy="201.908" rx="6.8702" ry="6.86588" transform="rotate(-180 101.724 201.908)" fill="white"/>
<ellipse cx="587.719" cy="336.902" rx="6.80537" ry="6.8011" transform="rotate(-180 587.719 336.902)" fill="white"/>
<ellipse cx="880.427" cy="243.985" rx="6.69092" ry="6.68672" transform="rotate(-180 880.427 243.985)" fill="white"/>
<ellipse cx="764.69" cy="200.688" rx="6.69092" ry="6.68672" transform="rotate(-180 764.69 200.688)" fill="white"/>
<ellipse cx="729.074" cy="202.088" rx="4.7429" ry="4.73991" transform="rotate(-180 729.074 202.088)" fill="white"/>
</g>
<g opacity="0.2">
<path d="M1833.82 823.431L1724.7 823.431L1681.05 865.16L1604.66 792.134L1571.93 823.431L1537.01 823.431L1401.7 952.791L1352.59 905.845L1276.21 978.871L1061.24 773.356L973.945 856.814L939.026 823.431L842.999 823.431" stroke="url(#paint2_linear)" stroke-width="1.47184"/>
<ellipse cx="1724.69" cy="824.053" rx="5.03986" ry="5.03669" transform="rotate(-180 1724.69 824.053)" fill="white"/>
<ellipse cx="1604.01" cy="792.851" rx="9.38182" ry="9.37592" transform="rotate(-180 1604.01 792.851)" fill="white"/>
<ellipse cx="1352.2" cy="908.96" rx="13.7983" ry="13.7896" transform="rotate(-180 1352.2 908.96)" fill="white"/>
<path d="M1329.16 908.959C1329.16 896.242 1339.48 885.933 1352.2 885.933C1364.93 885.933 1375.25 896.242 1375.25 908.959C1375.25 921.675 1364.93 931.985 1352.2 931.985C1339.48 931.985 1329.16 921.675 1329.16 908.959Z" stroke="white" stroke-width="1.31905"/>
<path d="M1586.93 792.86C1586.93 783.425 1594.58 775.777 1604.02 775.777C1613.46 775.777 1621.11 783.425 1621.11 792.86C1621.11 802.294 1613.46 809.942 1604.02 809.942C1594.58 809.942 1586.93 802.294 1586.93 792.86Z" stroke="white" stroke-width="1.31905"/>
<path d="M1048.84 775.381C1048.84 768.724 1054.24 763.327 1060.91 763.327C1067.57 763.327 1072.97 768.724 1072.97 775.381C1072.97 782.039 1067.57 787.436 1060.91 787.436C1054.24 787.436 1048.84 782.039 1048.84 775.381Z" stroke="white" stroke-width="0.659523"/>
<ellipse cx="1275.49" cy="978.881" rx="9.77708" ry="9.77093" transform="rotate(-180 1275.49 978.881)" fill="white"/>
<ellipse cx="1060.91" cy="775.38" rx="7.72209" ry="7.71724" transform="rotate(-180 1060.91 775.38)" fill="white"/>
<ellipse cx="973.89" cy="855.555" rx="10.217" ry="10.2106" transform="rotate(-180 973.89 855.555)" fill="white"/>
<ellipse cx="938.947" cy="823.882" rx="6.5443" ry="6.54019" transform="rotate(-180 938.947 823.882)" fill="white"/>
<ellipse cx="1401.89" cy="952.475" rx="6.48255" ry="6.47847" transform="rotate(-180 1401.89 952.475)" fill="white"/>
<ellipse cx="1680.71" cy="863.963" rx="6.37353" ry="6.36952" transform="rotate(-180 1680.71 863.963)" fill="white"/>
<ellipse cx="1571.9" cy="824.052" rx="6.37353" ry="6.36952" transform="rotate(-180 1571.9 824.052)" fill="white"/>
<ellipse cx="1536.54" cy="824.047" rx="4.51791" ry="4.51507" transform="rotate(-180 1536.54 824.047)" fill="white"/>
</g>
<defs>
<linearGradient id="paint0_linear" x1="-1215.71" y1="1879.74" x2="1542.09" y2="810.885" gradientUnits="userSpaceOnUse">
<stop stop-color="white"/>
<stop offset="1" stop-color="white" stop-opacity="0"/>
</linearGradient>
<linearGradient id="paint1_linear" x1="-27.3378" y1="199.459" x2="1028.2" y2="198.463" gradientUnits="userSpaceOnUse">
<stop stop-color="white" stop-opacity="0"/>
<stop offset="0.504509" stop-color="white"/>
<stop offset="1" stop-color="white" stop-opacity="0"/>
</linearGradient>
<linearGradient id="paint2_linear" x1="816.007" y1="821.544" x2="1821.48" y2="820.595" gradientUnits="userSpaceOnUse">
<stop stop-color="white" stop-opacity="0"/>
<stop offset="0.504509" stop-color="white"/>
<stop offset="1" stop-color="white" stop-opacity="0"/>
</linearGradient>
<clipPath id="clip0">
<rect width="1920" height="1083" fill="white" transform="translate(0.0449219 0.96875)"/>
</clipPath>
</defs>
</svg>
