<svg width="1920" height="808" viewBox="0 0 1920 808" fill="none" xmlns="http://www.w3.org/2000/svg">
<g opacity="0.05">
<path d="M2029.37 214.339L1789.95 205.448L1690.79 293.447L1529.14 127L1454.77 193L1378.16 190.155L1070.74 462.951L966.825 355.95L793.283 509.948L338.376 41.5216L140.042 217.52L66.1493 141.43L-144.538 133.606" stroke="#F4F6FD" stroke-width="4.79248"/>
<ellipse cx="1789.89" cy="206.792" rx="11.0653" ry="11.0584" transform="rotate(-177.873 1789.89 206.792)" fill="#F4F6FD"/>
<path d="M1509.22 127.812C1509.6 117.637 1518.16 109.693 1528.34 110.071C1538.53 110.449 1546.48 119.006 1546.1 129.181C1545.72 139.356 1537.16 147.3 1526.98 146.922C1516.79 146.543 1508.84 137.986 1509.22 127.812Z" fill="#F4F6FD" stroke="white" stroke-width="4.29498"/>
<path d="M937.59 361.693C938.167 346.17 951.226 334.052 966.762 334.629C982.298 335.205 994.423 348.259 993.847 363.782C993.27 379.305 980.211 391.424 964.675 390.847C949.139 390.27 937.014 377.216 937.59 361.693Z" fill="#F4F6FD" stroke="white" stroke-width="4.29498"/>
<path d="M915.867 360.891C916.888 333.376 940.036 311.898 967.571 312.92C995.106 313.943 1016.6 337.079 1015.57 364.593C1014.55 392.108 991.405 413.586 963.871 412.563C936.336 411.541 914.845 388.405 915.867 360.891Z" stroke="#F4F6FD" stroke-width="4.29498"/>
<path d="M1490.86 127.146C1491.61 106.834 1508.7 90.9773 1529.03 91.7322C1549.36 92.4872 1565.23 109.568 1564.47 129.88C1563.72 150.192 1546.63 166.049 1526.3 165.294C1505.97 164.539 1490.11 147.459 1490.86 127.146Z" stroke="#F4F6FD" stroke-width="4.29498"/>
<path d="M311.374 44.9543C311.909 30.5411 324.035 19.2899 338.459 19.8256C352.883 20.3612 364.14 32.4808 363.605 46.894C363.07 61.3072 350.944 72.5584 336.52 72.0227C322.096 71.4871 310.838 59.3675 311.374 44.9543Z" stroke="#F4F6FD" stroke-width="2.14749"/>
<ellipse cx="791.713" cy="509.894" rx="21.4662" ry="21.4527" transform="rotate(-177.873 791.713 509.894)" fill="#F4F6FD"/>
<path d="M322.681 45.3541C322.985 37.1893 329.854 30.8141 338.027 31.1176C346.2 31.4212 352.578 38.2883 352.275 46.4531C351.972 54.6179 345.102 60.9932 336.929 60.6896C328.756 60.3861 322.378 53.5189 322.681 45.3541Z" fill="#F4F6FD" stroke="white" stroke-width="4.29498"/>
<path d="M119.761 213.985C120.176 202.799 129.587 194.065 140.784 194.481C151.98 194.897 160.718 204.304 160.302 215.49C159.887 226.676 150.476 235.41 139.279 234.994C128.083 234.578 119.345 225.171 119.761 213.985Z" fill="#F4F6FD" stroke="white" stroke-width="4.29498"/>
<path d="M53.7333 141.914C53.9836 135.175 59.653 129.913 66.3991 130.164C73.1451 130.414 78.4086 136.082 78.1584 142.821C77.9081 149.559 72.2387 154.821 65.4926 154.571C58.7466 154.32 53.4831 148.652 53.7333 141.914Z" fill="#F4F6FD" stroke="white" stroke-width="4.29498"/>
<ellipse cx="1071.18" cy="462.273" rx="14.2328" ry="14.2239" transform="rotate(-177.873 1071.18 462.273)" fill="#F4F6FD"/>
<ellipse cx="1690.14" cy="290.783" rx="13.9935" ry="13.9847" transform="rotate(-177.873 1690.14 290.783)" fill="#F4F6FD"/>
<ellipse cx="1454.66" cy="194.33" rx="13.9935" ry="13.9847" transform="rotate(-177.873 1454.66 194.33)" fill="#F4F6FD"/>
<ellipse cx="1377.08" cy="191.456" rx="9.91936" ry="9.91312" transform="rotate(-177.873 1377.08 191.456)" fill="#F4F6FD"/>
</g>
<g opacity="0.05">
<path d="M-65 675.002L174.096 675.002L269.735 583.569L437.103 743.577L508.833 675.002H585.343L881.824 391.559L989.417 494.422L1156.79 334.414L1627.81 784.722L1819.08 601.856L1895.59 675.002H2106" stroke="#F4F6FD" stroke-width="4.78277"/>
<ellipse cx="174.105" cy="673.657" rx="11.0429" ry="11.036" fill="#F4F6FD"/>
<path d="M456.943 742.032C456.943 752.193 448.7 760.433 438.529 760.433C428.359 760.433 420.116 752.193 420.116 742.032C420.116 731.871 428.359 723.631 438.529 723.631C448.7 723.631 456.943 731.871 456.943 742.032Z" fill="#F4F6FD" stroke="white" stroke-width="4.28628"/>
<path d="M1018.36 487.609C1018.36 503.111 1005.78 515.681 990.269 515.681C974.754 515.681 962.178 503.111 962.178 487.609C962.178 472.107 974.754 459.538 990.269 459.538C1005.78 459.538 1018.36 472.107 1018.36 487.609Z" fill="#F4F6FD" stroke="white" stroke-width="4.28628"/>
<path d="M1040.06 487.605C1040.06 515.083 1017.77 537.36 990.268 537.36C962.769 537.36 940.48 515.083 940.48 487.605C940.48 460.127 962.769 437.85 990.268 437.85C1017.77 437.85 1040.06 460.127 1040.06 487.605Z" stroke="#F4F6FD" stroke-width="4.28628"/>
<path d="M475.278 742.016C475.278 762.301 458.823 778.747 438.521 778.747C418.22 778.747 401.765 762.301 401.765 742.016C401.765 721.73 418.22 705.284 438.521 705.284C458.823 705.284 475.278 721.73 475.278 742.016Z" stroke="#F4F6FD" stroke-width="4.28628"/>
<path d="M1654.61 780.299C1654.61 794.693 1642.93 806.363 1628.53 806.363C1614.12 806.363 1602.45 794.693 1602.45 780.299C1602.45 765.905 1614.12 754.236 1628.53 754.236C1642.93 754.236 1654.61 765.905 1654.61 780.299Z" stroke="#F4F6FD" stroke-width="2.14314"/>
<ellipse cx="1158.35" cy="334.409" rx="21.4227" ry="21.4092" fill="#F4F6FD"/>
<path d="M1643.32 780.32C1643.32 788.473 1636.7 795.086 1628.54 795.086C1620.38 795.086 1613.76 788.473 1613.76 780.32C1613.76 772.166 1620.38 765.553 1628.54 765.553C1636.7 765.553 1643.32 772.166 1643.32 780.32Z" fill="#F4F6FD" stroke="white" stroke-width="4.28628"/>
<path d="M1839.44 604.63C1839.44 615.802 1830.38 624.86 1819.2 624.86C1808.02 624.86 1798.95 615.802 1798.95 604.63C1798.95 593.459 1808.02 584.401 1819.2 584.401C1830.38 584.401 1839.44 593.459 1839.44 604.63Z" fill="#F4F6FD" stroke="white" stroke-width="4.28628"/>
<path d="M1907.96 674.061C1907.96 680.79 1902.5 686.248 1895.76 686.248C1889.03 686.248 1883.57 680.79 1883.57 674.061C1883.57 667.331 1889.03 661.874 1895.76 661.874C1902.5 661.874 1907.96 667.331 1907.96 674.061Z" fill="#F4F6FD" stroke="white" stroke-width="4.28628"/>
<ellipse cx="881.407" cy="392.254" rx="14.204" ry="14.1951" fill="#F4F6FD"/>
<ellipse cx="270.476" cy="586.202" rx="13.9651" ry="13.9564" fill="#F4F6FD"/>
<ellipse cx="508.893" cy="673.671" rx="13.9651" ry="13.9564" fill="#F4F6FD"/>
<ellipse cx="586.373" cy="673.663" rx="9.89926" ry="9.89304" fill="#F4F6FD"/>
</g>
</svg>
