<svg width="1920" height="1080" fill="none" xmlns="http://www.w3.org/2000/svg"><g opacity=".2"><path d="M868.748 792.689l107.806-5.117 41.166-43.273 78.89 68.564 30.87-32.454 34.5-1.638 127.62-134.146 50.71 44.077 72.04-75.727 222.02 192.959 82.33-86.546 36.06 31.344 94.87-4.503" stroke="url(#paint0_linear)" stroke-width="1.358"/><ellipse cx="976.527" cy="786.958" rx="4.985" ry="4.982" transform="rotate(-2.717 976.527 786.958)" fill="#1C83FF"/><ellipse cx="1097.22" cy="812.124" rx="9.279" ry="9.273" transform="rotate(-2.717 1097.22 812.124)" fill="#2F80ED"/><ellipse cx="1340.55" cy="685.617" rx="13.647" ry="13.639" transform="rotate(-2.717 1340.55 685.617)" fill="#4C91E3"/><path d="M1363.36 684.523c.59 12.587-9.13 23.277-21.73 23.875-12.6.598-23.29-9.123-23.89-21.71-.6-12.588 9.13-23.277 21.73-23.875 12.59-.598 23.29 9.122 23.89 21.71z" stroke="#4C91E3" stroke-width="1.217"/><path d="M1114.14 811.314c.45 9.345-6.77 17.28-16.13 17.724-9.35.444-17.29-6.772-17.73-16.117-.44-9.344 6.78-17.28 16.13-17.724 9.35-.444 17.29 6.773 17.73 16.117z" stroke="#2F80ED" stroke-width="1.217"/><path d="M1646.54 803.353c.31 6.589-4.78 12.185-11.37 12.498-6.6.313-12.2-4.776-12.51-11.365-.31-6.589 4.78-12.185 11.37-12.497 6.6-.313 12.2 4.775 12.51 11.364z" stroke="#4C91E3" stroke-width=".609"/><ellipse cx="1413.05" cy="612.933" rx="9.67" ry="9.664" transform="rotate(-2.717 1413.05 612.933)" fill="#CFE5FF"/><path d="M1641.62 803.593a7.03 7.03 0 01-6.69 7.35 7.02 7.02 0 01-7.35-6.684c-.19-3.874 2.81-7.165 6.69-7.349 3.87-.184 7.17 2.808 7.35 6.683z" fill="#4C91E3" stroke="#258CFF" stroke-width="1.217"/><path d="M1726.29 720.182a9.487 9.487 0 01-9.03 9.93c-5.24.248-9.69-3.795-9.94-9.03-.25-5.235 3.8-9.681 9.04-9.93 5.24-.248 9.69 3.795 9.93 9.03zm32.38 29.827c.16 3.233-2.34 5.978-5.58 6.132a5.861 5.861 0 11-.55-11.707 5.858 5.858 0 016.13 5.575z" fill="#1C83FF" stroke="#258CFF" stroke-width="1.217"/><ellipse cx="1289.42" cy="644.952" rx="6.412" ry="6.408" transform="rotate(-2.717 1289.42 644.952)" fill="#4672A7"/><ellipse cx="1018.11" cy="745.471" rx="6.304" ry="6.3" transform="rotate(-2.717 1018.11 745.471)" fill="#1C83FF"/><ellipse cx="1127.48" cy="779.795" rx="6.304" ry="6.3" transform="rotate(-2.717 1127.48 779.795)" fill="#1C83FF"/><ellipse cx="1162.42" cy="778.143" rx="4.469" ry="4.466" transform="rotate(-2.717 1162.42 778.143)" fill="#2F80ED"/></g><g opacity=".2"><path d="M1001.01 599.702l97.53-4.629 37.24-39.149 71.37 62.03 27.94-29.362 31.21-1.481 115.45-121.362 45.88 39.877 65.18-68.511 200.85 174.57 74.49-78.298 32.63 28.357 85.82-4.074" stroke="url(#paint1_linear)" stroke-width="1.229"/><ellipse cx="1098.52" cy="594.522" rx="4.51" ry="4.507" transform="rotate(-2.717 1098.52 594.522)" fill="#1C83FF"/><ellipse cx="1207.71" cy="617.287" rx="8.395" ry="8.39" transform="rotate(-2.717 1207.71 617.287)" fill="#2F80ED"/><ellipse cx="1427.85" cy="502.838" rx="12.347" ry="12.339" transform="rotate(-2.717 1427.85 502.838)" fill="#4C91E3"/><path d="M1448.48 501.846c.54 11.388-8.26 21.058-19.65 21.599-11.4.541-21.08-8.253-21.62-19.641-.54-11.388 8.26-21.058 19.66-21.599 11.39-.541 21.07 8.253 21.61 19.641z" stroke="#4C91E3" stroke-width="1.101"/><path d="M1223.02 616.554c.4 8.454-6.13 15.633-14.59 16.034-8.46.402-15.65-6.126-16.05-14.58-.4-8.454 6.13-15.634 14.59-16.035 8.46-.402 15.65 6.127 16.05 14.581z" stroke="#2F80ED" stroke-width="1.101"/><path d="M1704.68 609.351c.28 5.961-4.33 11.024-10.29 11.307-5.97.283-11.03-4.32-11.31-10.282-.29-5.961 4.32-11.023 10.28-11.306 5.97-.284 11.03 4.32 11.32 10.281z" stroke="#4C91E3" stroke-width=".551"/><ellipse cx="1493.44" cy="437.08" rx="8.749" ry="8.743" transform="rotate(-2.717 1493.44 437.08)" fill="#CFE5FF"/><path d="M1700.23 609.569a6.367 6.367 0 01-6.05 6.65 6.365 6.365 0 01-6.66-6.047 6.36 6.36 0 016.05-6.649 6.365 6.365 0 016.66 6.046z" fill="#4C91E3" stroke="#258CFF" stroke-width="1.101"/><path d="M1776.83 534.106c.23 4.736-3.43 8.758-8.17 8.983-4.74.225-8.77-3.432-8.99-8.169-.23-4.736 3.43-8.758 8.17-8.983 4.74-.225 8.77 3.433 8.99 8.169zm29.3 26.984a5.302 5.302 0 01-5.05 5.547 5.302 5.302 0 11-.5-10.591 5.308 5.308 0 015.55 5.044z" fill="#1C83FF" stroke="#258CFF" stroke-width="1.101"/><ellipse cx="1381.59" cy="466.047" rx="5.801" ry="5.797" transform="rotate(-2.717 1381.59 466.047)" fill="#4672A7"/><ellipse cx="1136.14" cy="556.985" rx="5.703" ry="5.699" transform="rotate(-2.717 1136.14 556.985)" fill="#1C83FF"/><ellipse cx="1235.09" cy="588.036" rx="5.703" ry="5.699" transform="rotate(-2.717 1235.09 588.036)" fill="#1C83FF"/><ellipse cx="1266.69" cy="586.543" rx="4.043" ry="4.04" transform="rotate(-2.717 1266.69 586.543)" fill="#2F80ED"/></g><defs><linearGradient id="paint0_linear" x1="2123.19" y1="733.988" x2="869.374" y2="793.497" gradientUnits="userSpaceOnUse"><stop stop-color="#4C91E3" stop-opacity="0"/><stop offset=".547" stop-color="#4C91E3"/><stop offset="1" stop-color="#4C91E3" stop-opacity="0"/></linearGradient><linearGradient id="paint1_linear" x1="2135.91" y1="546.595" x2="1001.58" y2="600.433" gradientUnits="userSpaceOnUse"><stop stop-color="#4C91E3" stop-opacity="0"/><stop offset=".547" stop-color="#4C91E3"/><stop offset="1" stop-color="#4C91E3" stop-opacity="0"/></linearGradient></defs></svg>