<svg width="1918" height="1084" fill="none" xmlns="http://www.w3.org/2000/svg"><g clip-path="url(#clip0)"><path fill-rule="evenodd" clip-rule="evenodd" d="M1910.75 45.112c94.77-8.306 168.26-53.027 164.15-99.887-4.1-46.86-84.26-78.114-179.03-69.807-94.77 8.306-168.26 53.028-164.16 99.887 3.11 35.392 49.59 61.882 112.98 69.15L969.024 556.643c-75.646-58.766-217.764-90.821-376.876-76.875-144.048 12.625-267.82 59.957-337.655 121.51L-2.5 505.501l1.448 16.519 243.356 90.696c-33.688 33.74-51.425 71.174-48.093 109.189 9.957 113.593 204.262 189.355 433.992 169.219C857.934 870.988 1036.1 762.58 1026.14 648.987c-2.67-30.465-18.6-58.209-44.919-82.112L1871.19 46.32c12.77.359 26.01-.02 39.56-1.208zM593.086 490.47c153.019-13.412 289.448 18.053 360.341 75.298l-113.278 66.258c-33.363-47.548-129.862-76.034-240.465-66.34-95.085 8.334-174.995 42.642-211.167 85.544l-117.52-43.799c65.824-59.212 184.147-104.87 322.089-116.961zM215.838 720.01c-3.078-35.12 12.814-69.719 43.187-101.063l120.319 44.842c-8.552 13.794-12.617 28.257-11.337 42.867 5.797 66.133 118.92 110.241 252.668 98.518 133.748-11.723 237.473-74.838 231.676-140.971-.578-6.6-2.226-12.981-4.856-19.11l117.808-68.907c22.936 21.936 36.797 47.143 39.207 74.697 9.44 107.677-159.445 210.451-377.245 229.541-217.799 19.09-401.989-52.738-411.427-160.414zM-5858.85 2039.5c48.86-4.29 86.74-27.34 84.62-51.49-2.11-24.16-43.43-40.27-92.28-35.99-48.85 4.28-86.74 27.34-84.62 51.49 2.11 24.16 43.43 40.27 92.28 35.99zm2302.62 27.13c3.95 44.97-66.58 87.88-157.52 95.85-90.94 7.97-167.85-22.02-171.79-66.98-3.94-44.97 66.58-87.88 157.52-95.85 90.94-7.97 167.85 22.02 171.79 66.98zm125.18-11.05c6.94 79.18-117.24 154.75-277.39 168.78-160.15 14.04-295.58-38.77-302.52-117.95-6.94-79.17 117.24-154.74 277.39-168.78 160.15-14.03 295.58 38.78 302.52 117.95zm21.63-1.89c7.45 85.09-126 166.29-298.08 181.37-172.09 15.09-317.63-41.66-325.09-126.75-7.46-85.09 126-166.29 298.08-181.38 172.08-15.08 317.63 41.67 325.09 126.76zm9242.74-554.23c114.15-10 202.66-63.87 197.72-120.3-4.95-56.44-101.49-94.08-215.64-84.08-114.15 10.01-202.66 63.87-197.72 120.31 4.95 56.43 101.49 94.08 215.64 84.07zm.47 5.35c120.11-10.53 213.27-67.21 208.06-126.6-5.2-59.39-106.8-99.01-226.91-88.48-120.12 10.53-213.27 67.21-208.07 126.6 5.21 59.4 106.8 99.01 226.92 88.48zm126.11-119.41c3.25 37.01-54.8 72.33-129.65 78.89-74.85 6.56-138.16-18.12-141.41-55.13-3.24-37.01 54.81-72.33 129.66-78.89 74.85-6.56 138.16 18.12 141.4 55.13zm1338.42-729.524c99.04-8.68 175.84-55.413 171.55-104.382-4.29-48.968-88.05-81.628-187.09-72.948-99.03 8.68-175.84 55.414-171.55 104.382 4.3 48.969 88.06 81.629 187.09 72.948zm744.49 122.565c2.75 31.365-46.44 61.3-109.88 66.86-63.43 5.559-117.08-15.36-119.83-46.726s46.44-61.3 109.88-66.86c63.43-5.56 117.08 15.36 119.83 46.726zM-5116.27 1636.85c61.78-5.41 109.69-34.56 107.02-65.11-2.68-30.55-54.93-50.92-116.71-45.51-61.78 5.42-109.69 34.57-107.02 65.12 2.68 30.54 54.93 50.92 116.71 45.5zm2047.14 114.05c2.68 30.55-45.23 59.7-107.01 65.12-61.78 5.41-114.03-14.96-116.71-45.51-2.68-30.55 45.23-59.7 107.01-65.11 61.78-5.42 114.03 14.95 116.71 45.5zm512.17-5.35c43.79-3.84 77.76-24.51 75.86-46.16-1.9-21.65-38.94-36.1-82.73-32.26-43.79 3.84-77.76 24.51-75.86 46.16 1.9 21.65 38.94 36.1 82.73 32.26z" fill="url(#paint0_linear)" opacity=".2"/></g><g opacity=".2"><path d="M1041.16 201.44H926.605l-45.822 43.807-80.189-76.662-34.366 32.855H729.57L587.522 337.242l-51.55-49.283-80.189 76.662-225.673-215.75-91.645 87.614-36.657-35.045H.999" stroke="url(#paint1_linear)" stroke-width="1.293"/><ellipse cx="926.601" cy="202.095" rx="5.291" ry="5.288" transform="rotate(-180 926.601 202.095)" fill="#fff"/><ellipse cx="799.91" cy="169.333" rx="9.849" ry="9.843" transform="rotate(-180 799.91 169.333)" fill="#fff"/><ellipse cx="535.563" cy="291.223" rx="14.486" ry="14.476" transform="rotate(-180 535.563 291.223)" fill="#fff"/><path d="M511.26 291.229c0-13.413 10.88-24.286 24.302-24.286 13.421 0 24.301 10.873 24.301 24.286 0 13.412-10.88 24.285-24.301 24.285-13.422 0-24.302-10.873-24.302-24.285zm270.6-121.886c0-9.966 8.084-18.046 18.057-18.046 9.974 0 18.058 8.08 18.058 18.046s-8.084 18.046-18.058 18.046c-9.973 0-18.057-8.08-18.057-18.046z" stroke="#fff" stroke-width="1.159"/><path d="M217.039 150.999c0-7.02 5.695-12.711 12.719-12.711 7.025 0 12.72 5.691 12.72 12.711 0 7.02-5.695 12.711-12.72 12.711-7.024 0-12.719-5.691-12.719-12.711z" stroke="#fff" stroke-width=".58"/><ellipse cx="455.032" cy="364.629" rx="10.264" ry="10.258" transform="rotate(-180 455.032 364.629)" fill="#fff"/><ellipse cx="229.76" cy="150.992" rx="8.107" ry="8.102" transform="rotate(-180 229.76 150.992)" fill="#fff"/><ellipse cx="138.408" cy="235.16" rx="10.726" ry="10.719" transform="rotate(-180 138.408 235.16)" fill="#fff"/><ellipse cx="101.724" cy="201.908" rx="6.87" ry="6.866" transform="rotate(-180 101.724 201.908)" fill="#fff"/><ellipse cx="587.719" cy="336.902" rx="6.805" ry="6.801" transform="rotate(-180 587.719 336.902)" fill="#fff"/><ellipse cx="880.427" cy="243.985" rx="6.691" ry="6.687" transform="rotate(-180 880.427 243.985)" fill="#fff"/><ellipse cx="764.69" cy="200.688" rx="6.691" ry="6.687" transform="rotate(-180 764.69 200.688)" fill="#fff"/><ellipse cx="729.074" cy="202.088" rx="4.743" ry="4.74" transform="rotate(-180 729.074 202.088)" fill="#fff"/></g><g opacity=".2"><path d="M1833.82 823.431H1724.7l-43.65 41.729-76.39-73.026-32.73 31.297h-34.92l-135.31 129.36-49.11-46.946-76.38 73.026-214.97-205.515-87.295 83.458-34.919-33.383h-96.027" stroke="url(#paint2_linear)" stroke-width="1.472"/><ellipse cx="1724.69" cy="824.053" rx="5.04" ry="5.037" transform="rotate(-180 1724.69 824.053)" fill="#fff"/><ellipse cx="1604.01" cy="792.851" rx="9.382" ry="9.376" transform="rotate(-180 1604.01 792.851)" fill="#fff"/><ellipse cx="1352.2" cy="908.96" rx="13.798" ry="13.79" transform="rotate(-180 1352.2 908.96)" fill="#fff"/><path d="M1329.16 908.959c0-12.717 10.32-23.026 23.04-23.026 12.73 0 23.05 10.309 23.05 23.026 0 12.716-10.32 23.026-23.05 23.026-12.72 0-23.04-10.31-23.04-23.026zm257.77-116.099c0-9.435 7.65-17.083 17.09-17.083s17.09 7.648 17.09 17.083c0 9.434-7.65 17.082-17.09 17.082s-17.09-7.648-17.09-17.082z" stroke="#fff" stroke-width="1.319"/><path d="M1048.84 775.381c0-6.657 5.4-12.054 12.07-12.054 6.66 0 12.06 5.397 12.06 12.054 0 6.658-5.4 12.055-12.06 12.055-6.67 0-12.07-5.397-12.07-12.055z" stroke="#fff" stroke-width=".66"/><ellipse cx="1275.49" cy="978.881" rx="9.777" ry="9.771" transform="rotate(-180 1275.49 978.881)" fill="#fff"/><ellipse cx="1060.91" cy="775.38" rx="7.722" ry="7.717" transform="rotate(-180 1060.91 775.38)" fill="#fff"/><ellipse cx="973.89" cy="855.555" rx="10.217" ry="10.211" transform="rotate(-180 973.89 855.555)" fill="#fff"/><ellipse cx="938.947" cy="823.882" rx="6.544" ry="6.54" transform="rotate(-180 938.947 823.882)" fill="#fff"/><ellipse cx="1401.89" cy="952.475" rx="6.483" ry="6.478" transform="rotate(-180 1401.89 952.475)" fill="#fff"/><ellipse cx="1680.71" cy="863.963" rx="6.374" ry="6.37" transform="rotate(-180 1680.71 863.963)" fill="#fff"/><ellipse cx="1571.9" cy="824.052" rx="6.374" ry="6.37" transform="rotate(-180 1571.9 824.052)" fill="#fff"/><ellipse cx="1536.54" cy="824.047" rx="4.518" ry="4.515" transform="rotate(-180 1536.54 824.047)" fill="#fff"/></g><defs><linearGradient id="paint0_linear" x1="-1215.71" y1="1879.74" x2="1542.09" y2="810.885" gradientUnits="userSpaceOnUse"><stop stop-color="#fff"/><stop offset="1" stop-color="#fff" stop-opacity="0"/></linearGradient><linearGradient id="paint1_linear" x1="-27.338" y1="199.459" x2="1028.2" y2="198.463" gradientUnits="userSpaceOnUse"><stop stop-color="#fff" stop-opacity="0"/><stop offset=".505" stop-color="#fff"/><stop offset="1" stop-color="#fff" stop-opacity="0"/></linearGradient><linearGradient id="paint2_linear" x1="816.007" y1="821.544" x2="1821.48" y2="820.595" gradientUnits="userSpaceOnUse"><stop stop-color="#fff" stop-opacity="0"/><stop offset=".505" stop-color="#fff"/><stop offset="1" stop-color="#fff" stop-opacity="0"/></linearGradient><clipPath id="clip0"><path fill="#fff" transform="translate(.045 .969)" d="M0 0h1920v1083H0z"/></clipPath></defs></svg>