<svg width="1920" height="808" fill="none" xmlns="http://www.w3.org/2000/svg"><g opacity=".05"><path d="M2029.37 214.339l-239.42-8.891-99.16 87.999L1529.14 127l-74.37 66-76.61-2.845-307.42 272.796L966.825 355.95 793.283 509.948 338.376 41.522 140.042 217.52l-73.893-76.09-210.687-7.824" stroke="#F4F6FD" stroke-width="4.792"/><ellipse cx="1789.89" cy="206.792" rx="11.065" ry="11.058" transform="rotate(-177.873 1789.89 206.792)" fill="#F4F6FD"/><path d="M1509.22 127.812c.38-10.175 8.94-18.119 19.12-17.741 10.19.378 18.14 8.935 17.76 19.11-.38 10.175-8.94 18.119-19.12 17.741-10.19-.379-18.14-8.936-17.76-19.11zM937.59 361.693c.577-15.523 13.636-27.641 29.172-27.064 15.536.576 27.661 13.63 27.085 29.153-.577 15.523-13.636 27.642-29.172 27.065-15.536-.577-27.661-13.631-27.085-29.154z" fill="#F4F6FD" stroke="#fff" stroke-width="4.295"/><path d="M915.867 360.891c1.021-27.515 24.169-48.993 51.704-47.971 27.535 1.023 49.029 24.159 47.999 51.673-1.02 27.515-24.165 48.993-51.699 47.97-27.535-1.022-49.026-24.158-48.004-51.672zm574.993-233.745c.75-20.312 17.84-36.169 38.17-35.414 20.33.755 36.2 17.836 35.44 38.148-.75 20.312-17.84 36.169-38.17 35.414-20.33-.755-36.19-17.835-35.44-38.148z" stroke="#F4F6FD" stroke-width="4.295"/><path d="M311.374 44.954c.535-14.413 12.661-25.664 27.085-25.128 14.424.535 25.681 12.655 25.146 27.068-.535 14.413-12.661 25.664-27.085 25.129-14.424-.536-25.682-12.655-25.146-27.069z" stroke="#F4F6FD" stroke-width="2.147"/><ellipse cx="791.713" cy="509.894" rx="21.466" ry="21.453" transform="rotate(-177.873 791.713 509.894)" fill="#F4F6FD"/><path d="M322.681 45.354c.304-8.165 7.173-14.54 15.346-14.236 8.173.303 14.551 7.17 14.248 15.335-.303 8.165-7.173 14.54-15.346 14.237-8.173-.304-14.551-7.171-14.248-15.336zm-202.92 168.631c.415-11.186 9.826-19.92 21.023-19.504 11.196.416 19.934 9.823 19.518 21.009-.415 11.186-9.826 19.92-21.023 19.504-11.196-.416-19.934-9.823-19.518-21.009zm-66.028-72.071c.25-6.739 5.92-12.001 12.666-11.75 6.746.25 12.01 5.918 11.76 12.657-.25 6.738-5.92 12-12.666 11.75-6.746-.251-12.01-5.919-11.76-12.657z" fill="#F4F6FD" stroke="#fff" stroke-width="4.295"/><ellipse cx="1071.18" cy="462.273" rx="14.233" ry="14.224" transform="rotate(-177.873 1071.18 462.273)" fill="#F4F6FD"/><ellipse cx="1690.14" cy="290.783" rx="13.993" ry="13.985" transform="rotate(-177.873 1690.14 290.783)" fill="#F4F6FD"/><ellipse cx="1454.66" cy="194.33" rx="13.993" ry="13.985" transform="rotate(-177.873 1454.66 194.33)" fill="#F4F6FD"/><ellipse cx="1377.08" cy="191.456" rx="9.919" ry="9.913" transform="rotate(-177.873 1377.08 191.456)" fill="#F4F6FD"/></g><g opacity=".05"><path d="M-65 675.002h239.096l95.639-91.433 167.368 160.008 71.73-68.575h76.51l296.481-283.443 107.593 102.863 167.373-160.008 471.02 450.308 191.27-182.866 76.51 73.146H2106" stroke="#F4F6FD" stroke-width="4.783"/><ellipse cx="174.105" cy="673.657" rx="11.043" ry="11.036" fill="#F4F6FD"/><path d="M456.943 742.032c0 10.161-8.243 18.401-18.414 18.401-10.17 0-18.413-8.24-18.413-18.401s8.243-18.401 18.413-18.401c10.171 0 18.414 8.24 18.414 18.401zm561.417-254.423c0 15.502-12.58 28.072-28.091 28.072-15.515 0-28.091-12.57-28.091-28.072 0-15.502 12.576-28.071 28.091-28.071 15.511 0 28.091 12.569 28.091 28.071z" fill="#F4F6FD" stroke="#fff" stroke-width="4.286"/><path d="M1040.06 487.605c0 27.478-22.29 49.755-49.792 49.755-27.499 0-49.788-22.277-49.788-49.755s22.289-49.755 49.788-49.755c27.502 0 49.792 22.277 49.792 49.755zM475.278 742.016c0 20.285-16.455 36.731-36.757 36.731-20.301 0-36.756-16.446-36.756-36.731 0-20.286 16.455-36.732 36.756-36.732 20.302 0 36.757 16.446 36.757 36.732z" stroke="#F4F6FD" stroke-width="4.286"/><path d="M1654.61 780.299c0 14.394-11.68 26.064-26.08 26.064-14.41 0-26.08-11.67-26.08-26.064s11.67-26.063 26.08-26.063c14.4 0 26.08 11.669 26.08 26.063z" stroke="#F4F6FD" stroke-width="2.143"/><ellipse cx="1158.35" cy="334.409" rx="21.423" ry="21.409" fill="#F4F6FD"/><path d="M1643.32 780.32c0 8.153-6.62 14.766-14.78 14.766s-14.78-6.613-14.78-14.766c0-8.154 6.62-14.767 14.78-14.767s14.78 6.613 14.78 14.767zm196.12-175.69c0 11.172-9.06 20.23-20.24 20.23-11.18 0-20.25-9.058-20.25-20.23 0-11.171 9.07-20.229 20.25-20.229s20.24 9.058 20.24 20.229zm68.52 69.431c0 6.729-5.46 12.187-12.2 12.187-6.73 0-12.19-5.458-12.19-12.187 0-6.73 5.46-12.187 12.19-12.187 6.74 0 12.2 5.457 12.2 12.187z" fill="#F4F6FD" stroke="#fff" stroke-width="4.286"/><ellipse cx="881.407" cy="392.254" rx="14.204" ry="14.195" fill="#F4F6FD"/><ellipse cx="270.476" cy="586.202" rx="13.965" ry="13.956" fill="#F4F6FD"/><ellipse cx="508.893" cy="673.671" rx="13.965" ry="13.956" fill="#F4F6FD"/><ellipse cx="586.373" cy="673.663" rx="9.899" ry="9.893" fill="#F4F6FD"/></g></svg>