<svg width="40" height="41" fill="none" xmlns="http://www.w3.org/2000/svg"><circle cx="20" cy="20.5" r="20" fill="#F4F6FD"/><path d="M19.044 23.287c-1.504 0-2.864-.342-4.08-1.025v-2.768a7.292 7.292 0 003.957 1.148c.93 0 1.688-.212 2.276-.636.602-.423.902-1.011.902-1.763 0-.71-.294-1.285-.881-1.722-.575-.438-1.347-.657-2.317-.657-1.135 0-2.283.206-3.445.616l.943-7.833h7.669v2.542h-5.495l-.308 2.44a6.231 6.231 0 011.374-.143c1.585 0 2.877.437 3.875 1.312 1.025.875 1.538 2.023 1.538 3.445 0 1.572-.581 2.81-1.743 3.711-1.162.889-2.584 1.333-4.265 1.333z" fill="#1C4F94"/><path d="M19.044 23.287c-1.504 0-2.864-.342-4.08-1.025v-2.768a7.292 7.292 0 003.957 1.148c.93 0 1.688-.212 2.276-.636.602-.423.902-1.011.902-1.763 0-.71-.294-1.285-.881-1.722-.575-.438-1.347-.657-2.317-.657-1.135 0-2.283.206-3.445.616l.943-7.833h7.669v2.542h-5.495l-.308 2.44a6.231 6.231 0 011.374-.143c1.585 0 2.877.437 3.875 1.312 1.025.875 1.538 2.023 1.538 3.445 0 1.572-.581 2.81-1.743 3.711-1.162.889-2.584 1.333-4.265 1.333z" fill="#258CFF"/><path d="M12.704 32h-1.122v-4.21h1.173l1.223 1.57 1.231-1.57h1.173V32H15.26v-2.598l-1.046 1.307h-.472l-1.038-1.307V32zm5.956 0h-1.114v-4.21h1.173v2.48l1.906-2.48h1.114V32h-1.173v-2.48L18.66 32zm5.43 0H22.9v-4.21h1.19v1.561h1.73v-1.56h1.189V32h-1.19v-1.653H24.09V32z" fill="#1C4F94"/><path d="M12.704 32h-1.122v-4.21h1.173l1.223 1.57 1.231-1.57h1.173V32H15.26v-2.598l-1.046 1.307h-.472l-1.038-1.307V32zm5.956 0h-1.114v-4.21h1.173v2.48l1.906-2.48h1.114V32h-1.173v-2.48L18.66 32zm5.43 0H22.9v-4.21h1.19v1.561h1.73v-1.56h1.189V32h-1.19v-1.653H24.09V32z" fill="#1C4F94"/></svg>