<svg width="40" height="40" fill="none" xmlns="http://www.w3.org/2000/svg"><circle cx="20" cy="20" r="20" fill="#F4F6FD"/><path d="M16.822 31.336h-1.916l6.81-11.27h1.916l-6.81 11.27zM13.73 20.758c.558-.536 1.255-.805 2.092-.805.838 0 1.535.269 2.093.805.548.526.822 1.192.822 1.997 0 .805-.274 1.47-.822 1.996-.558.537-1.255.805-2.093.805-.837 0-1.534-.268-2.093-.805-.547-.526-.82-1.191-.82-1.996 0-.805.273-1.47.82-1.997zm1.352 2.786c.193.204.44.306.74.306a.975.975 0 00.741-.306 1.14 1.14 0 00.29-.79c0-.31-.097-.568-.29-.772a.952.952 0 00-.74-.322.95.95 0 00-.741.322c-.193.204-.29.462-.29.773s.097.574.29.789zm5.522 3.107c.558-.537 1.256-.805 2.093-.805s1.535.268 2.093.805c.547.537.821 1.202.821 1.996 0 .795-.274 1.46-.821 1.997-.558.536-1.256.805-2.093.805s-1.535-.269-2.093-.805c-.547-.526-.821-1.192-.821-1.997 0-.805.274-1.47.821-1.996zm1.352 2.785c.194.204.44.306.741.306.3 0 .547-.102.74-.306.194-.215.29-.477.29-.789 0-.311-.096-.569-.29-.772a.952.952 0 00-.74-.323.95.95 0 00-.74.323c-.194.203-.29.461-.29.772 0 .312.096.575.29.79z" fill="#1C4F94"/><path d="M19.625 6.004l7.043 7.043-14-.086 6.957-6.957z" fill="#258CFF"/><path fill="#258CFF" d="M16.557 11.492h6.222v5.444h-6.222z"/></svg>