<svg width="41" height="26" fill="none" xmlns="http://www.w3.org/2000/svg"><mask id="mask0" style="mask-type:alpha" maskUnits="userSpaceOnUse" x="0" y="0" width="41" height="26"><rect x="40.304" y="25.238" width="40" height="25.234" rx="1.068" transform="rotate(-180 40.304 25.238)" fill="#1B64DC"/></mask><g mask="url(#mask0)"><rect x="40.304" y="25.238" width="40" height="25.234" rx="3.6" transform="rotate(-180 40.304 25.238)" fill="#258CFF"/></g><path fill="#fff" d="M8.974 6.02h1.611v11.277H8.974z"/><path fill="#fff" d="M15.418 10.852v1.61H4.14v-1.61zm11.646 5.228l-2.085 4.85h-1.362l-1.03-3.873c-.06-.24-.119-.321-.308-.425-.308-.16-.829-.322-1.279-.414l.035-.137h2.192a.59.59 0 01.592.494l.544 2.804 1.35-3.299h1.35zm5.365 3.276c0-1.276-1.824-1.356-1.812-1.92 0-.172.177-.356.544-.401.19-.023.7-.047 1.28.218l.224-1.035A3.692 3.692 0 0031.457 16c-1.279 0-2.179.655-2.179 1.61-.011.7.64 1.091 1.125 1.32.51.242.675.392.675.599 0 .322-.402.47-.77.47-.65.012-1.03-.171-1.326-.31l-.237 1.058c.308.138.865.253 1.433.253 1.35.011 2.239-.644 2.25-1.644zm3.375 1.575H37l-1.042-4.85h-1.102a.595.595 0 00-.556.356l-1.942 4.494h1.361l.273-.724h1.658l.154.724zm-1.445-1.713l.675-1.827.39 1.827H34.36zm-5.448-3.137l-1.066 4.85h-1.29l1.065-4.85h1.291z"/></svg>