<svg width="102" height="103" fill="none" xmlns="http://www.w3.org/2000/svg"><path d="M87.071 94.311v-24.14M75 70.172h24.14M75.007 57.5h24.14" stroke="#fff" stroke-width="6.009"/><path d="M30.811 94.883c-9.634 0-17.157-3.838-22.569-11.515C2.868 75.653.182 65.174.182 51.932c0-13.127 2.706-23.548 8.118-31.263C13.75 12.916 21.254 9.04 30.81 9.04c9.558 0 17.023 3.858 22.397 11.573 5.412 7.676 8.118 18.097 8.118 31.263 0 13.242-2.687 23.72-8.06 31.436-5.374 7.714-12.859 11.572-22.455 11.572zM15.9 76.747c3.532 6.064 8.502 9.097 14.912 9.097s11.362-3.013 14.855-9.04c3.492-6.064 5.239-14.355 5.239-24.872 0-10.363-1.766-18.577-5.297-24.642-3.531-6.103-8.463-9.154-14.797-9.154-6.333 0-11.284 3.051-14.854 9.154-3.57 6.103-5.354 14.298-5.354 24.585 0 10.517 1.765 18.807 5.296 24.872z" fill="#fff"/></svg>