<svg width="40" height="40" fill="none" xmlns="http://www.w3.org/2000/svg"><circle cx="20" cy="20" r="20" fill="#1C83FF"/><path d="M25.855 29H13.902v-2.52l4.944-4.488c1.137-1.04 1.913-1.872 2.328-2.496.448-.64.672-1.32.672-2.04s-.264-1.288-.791-1.704c-.529-.432-1.224-.648-2.088-.648-1.569 0-3.08.64-4.536 1.92v-3.552c1.36-1.072 2.992-1.608 4.896-1.608 1.6 0 2.991.472 4.175 1.416 1.184.944 1.777 2.184 1.777 3.72 0 1.184-.264 2.232-.793 3.144-.48.864-1.4 1.928-2.76 3.192l-2.88 2.64h7.009V29z" fill="#F4F6FD"/></svg>