<svg width="40" height="40" fill="none" xmlns="http://www.w3.org/2000/svg"><circle cx="20" cy="20" r="20" fill="#1C83FF"/><path d="M19.122 29.336c-1.984 0-3.688-.448-5.112-1.344v-3.288a8.42 8.42 0 004.92 1.536c1.024 0 1.864-.248 2.52-.744.656-.512.984-1.2.984-2.064 0-.816-.304-1.472-.912-1.968-.608-.512-1.416-.768-2.424-.768a6.4 6.4 0 00-2.376.456v-2.28l4.008-3.696h-6.192V12.2h10.608v2.592l-3.792 3.48c1.2.208 2.256.76 3.168 1.656.912.88 1.368 2.048 1.368 3.504 0 1.792-.648 3.224-1.944 4.296-1.28 1.072-2.888 1.608-4.824 1.608z" fill="#F4F6FD"/></svg>