<svg width="128" height="22" fill="none" xmlns="http://www.w3.org/2000/svg"><path d="M126.664 1.06c-.778 0-1.444.616-1.444 1.4v10.08a9.215 9.215 0 01-1.833.896c-1.666.56-3.554.504-5.165-.168-1.277-.56-2.11-1.624-2.443-2.912-.223-.896-.223-1.792-.223-2.688 0-1.848-.444-3.248-.833-4.2-.444-.952-.888-1.456-.944-1.568-.5-.56-1.444-.616-1.999-.112-.555.504-.611 1.4-.111 1.96 0 0 .278.336.555.952.445 1.12.556 2.24.556 3.416 0 1.904.388 3.864 1.499 5.432.778 1.12 1.999 1.96 3.277 2.464 2.166.84 4.609.84 6.831.056.222-.056.444-.168.666-.224-.333 1.12-1.222 1.96-2.277 2.408-2.11.896-4.776.392-6.775-.616-.722-.392-1.555-.168-1.888.56-.389.672-.167 1.512.555 1.904 1.722.952 3.665 1.4 5.609 1.4 1.166 0 2.277-.168 3.277-.56 1.555-.56 2.887-1.68 3.665-3.136.5-.952.777-2.016.777-3.136V2.292c.056-.728-.555-1.232-1.332-1.232zm-15.995 7.784c0-1.176-.5-2.464-1.11-3.472-.167-.336-.389-.56-.611-.84-.5-.616-1.333-.728-2-.28-.61.504-.777 1.344-.277 1.96.166.168.277.392.388.56.5.84.722 1.792.722 2.688 0 .896-.222 1.904-.722 2.688a5.485 5.485 0 01-2.054 2.016 5.52 5.52 0 01-2.722.728c-.944 0-1.888-.224-2.72-.728-.834-.504-1.556-1.12-2.056-2.016a5.284 5.284 0 01-.722-2.688c0-.896.222-1.904.722-2.688a5.49 5.49 0 012.055-2.016 5.519 5.519 0 012.721-.728c.223 0 .5 0 .722.056.778.112 1.5-.448 1.611-1.176.111-.784-.444-1.456-1.222-1.568-.333-.056-.722-.056-1.055-.056-1.444 0-2.832.336-4.165 1.12-1.333.784-2.388 1.848-3.11 3.08s-1.055 2.632-1.055 4.088c0 1.4.333 2.8 1.11 4.144a9.12 9.12 0 003.11 3.08 8.638 8.638 0 004.11 1.064c1.444 0 2.832-.336 4.165-1.12 1-.56 1.888-1.344 2.555-2.24.333.728.722 1.4 1.11 2.016.445.672 1.333.84 1.944.392.667-.392.833-1.288.389-1.904-1.111-1.848-1.833-3.92-1.833-6.16zM88.455 13.1a4.591 4.591 0 01-1.555 1.176c-.61.336-1.222.504-1.944.56-.222.056-.5.056-.722.056a6.516 6.516 0 01-2.665-.56c-.722-.336-1.444-.728-2.11-1.288V7.108c.388-.896.943-1.624 1.61-2.128.722-.56 1.555-.896 2.554-1.008.222-.056.445-.056.667-.056 1.388 0 2.665.504 3.665 1.4.5.392.889.952 1.222 1.512.333.56.5 1.232.61 1.904.056.224.056.448.056.672 0 1.456-.5 2.744-1.388 3.696zm3.221-7.504a8.818 8.818 0 00-3.054-3.192C87.344 1.62 85.9 1.228 84.29 1.228c-.333 0-.667.056-1 .056-1.555.168-2.888.784-3.998 1.568a3.75 3.75 0 00-.834.784 6.54 6.54 0 00-.721-1.12 11.63 11.63 0 00-.834-.952c-.61-.504-1.499-.504-1.999.112-.5.56-.5 1.456.111 1.96.056.056.445.392.778 1.064.222.336.388.728.5 1.176.166.448.222.952.222 1.568v11.928c0 .784.61 1.4 1.444 1.4.833 0 1.444-.616 1.444-1.4V16.46l1 .504c1.221.504 2.443.784 3.776.784.333 0 .722-.056 1.055-.056 1.055-.168 2.055-.448 2.943-.952 1.333-.728 2.444-1.736 3.221-2.968.778-1.288 1.222-2.688 1.222-4.256 0-.336-.055-.672-.055-1.008-.056-1.064-.39-2.016-.889-2.912zM53.134 2.348c-1.333-.784-2.721-1.12-4.165-1.12-.333 0-.722.056-1.055.056-.778.112-1.333.784-1.222 1.568.111.784.777 1.288 1.61 1.176.223-.056.5-.056.723-.056.944 0 1.888.224 2.72.728a5.489 5.489 0 012.056 2.016c.5.84.722 1.736.722 2.688a5.15 5.15 0 01-.722 2.688 5.095 5.095 0 01-2.055 2.016c-.833.504-1.777.728-2.721.728-.945 0-1.889-.224-2.722-.728a5.49 5.49 0 01-2.055-2.016 5.142 5.142 0 01-.721-2.688c0-.952.222-1.848.721-2.688.111-.224.223-.392.39-.56.499-.616.332-1.456-.279-1.96-.61-.504-1.555-.336-1.999.28-.222.28-.444.56-.61.84-.778 1.288-1.111 2.688-1.111 4.144s.388 2.8 1.055 4.088c.722 1.232 1.777 2.352 3.11 3.08 1.333.784 2.721 1.12 4.165 1.12s2.832-.392 4.11-1.064c1.221-.672 2.388-1.736 3.11-3.08.777-1.288 1.11-2.688 1.11-4.144s-.388-2.8-1.055-4.088a8.114 8.114 0 00-3.11-3.024zM9.261 5.316c.333.672 1.166 1.008 1.888.672.722-.336 1.055-1.12.722-1.848l-1.277-2.8C10.372.836 9.816.5 9.26.5c-.222 0-.389.056-.611.168-.722.336-1.055 1.12-.722 1.848l1.333 2.8zm13.828-2.128c.5-.616.334-1.456-.277-1.96s-1.555-.336-2 .28c-.333.448-.61.896-.944 1.4a9.548 9.548 0 00-1 2.184l-3.22 8.064-2.833-4.928c-.222-.448-.722-.728-1.222-.728s-.944.28-1.221.672L7.484 13.1 2.764 1.396A1.443 1.443 0 001.43.5h-.055c-.167 0-.333.056-.5.112C.153.892-.18 1.732.097 2.46L5.93 16.908c.222.504.666.84 1.221.896a1.4 1.4 0 001.333-.672l3.11-5.376 3.055 5.32c.277.504.777.784 1.333.728.555-.056 1-.392 1.222-.896L21.534 6.1c.222-.56.5-1.176.833-1.736.223-.448.445-.84.722-1.176zm11.774-.84c-1.333-.784-2.721-1.12-4.165-1.12-.334 0-.722.056-1.056.056-.777.112-1.332.784-1.221 1.568.11.784.777 1.288 1.61 1.176.222-.056.5-.056.722-.056.944 0 1.888.224 2.721.728a5.489 5.489 0 012.055 2.016c.5.84.722 1.736.722 2.688a5.14 5.14 0 01-.722 2.688 5.095 5.095 0 01-2.055 2.016c-.833.504-1.777.728-2.72.728-.945 0-1.889-.224-2.722-.728a5.49 5.49 0 01-2.055-2.016 5.142 5.142 0 01-.722-2.688c0-.952.222-1.848.722-2.688.111-.224.222-.392.389-.56.5-.616.333-1.456-.278-1.96-.61-.504-1.555-.336-2 .28-.221.28-.443.56-.61.84-.777 1.288-1.11 2.688-1.11 4.144s.388 2.8 1.055 4.088c.722 1.232 1.777 2.352 3.11 3.08 1.332.784 2.72 1.12 4.165 1.12 1.444 0 2.832-.392 4.11-1.064 1.221-.672 2.387-1.736 3.11-3.08.777-1.288 1.11-2.688 1.11-4.144s-.389-2.8-1.055-4.088c-.666-1.232-1.722-2.296-3.11-3.024zM70.906 13.1a4.59 4.59 0 01-1.555 1.176c-.611.336-1.222.504-1.944.56-.222.056-.5.056-.722.056a6.516 6.516 0 01-2.666-.56c-.722-.336-1.444-.728-2.11-1.288V7.108c.389-.896.944-1.624 1.61-2.128.722-.56 1.555-.896 2.555-1.008.222-.056.444-.056.666-.056 1.389 0 2.666.504 3.666 1.4.5.392.888.952 1.222 1.512.333.56.5 1.232.61 1.904.056.224.056.448.056.672 0 1.456-.5 2.744-1.388 3.696zm3.276-7.504a8.82 8.82 0 00-3.054-3.192c-1.278-.784-2.722-1.176-4.332-1.176-.333 0-.666.056-1 .056-1.555.168-2.888.784-3.998 1.568a3.75 3.75 0 00-.833.784c-.222-.448-.5-.84-.722-1.12a11.63 11.63 0 00-.833-.952c-.611-.504-1.5-.504-2 .112-.5.56-.5 1.456.112 1.96.055.056.444.392.777 1.064.222.336.389.728.5 1.176.166.448.222.952.222 1.568v11.928c0 .784.61 1.4 1.444 1.4.777 0 1.444-.616 1.444-1.4V16.46l1 .504c1.221.504 2.443.784 3.776.784.333 0 .722-.056 1.055-.056 1.055-.168 2.055-.448 2.944-.952 1.332-.728 2.443-1.736 3.22-2.968.778-1.288 1.222-2.688 1.222-4.256 0-.336-.055-.672-.055-1.008-.056-1.064-.445-2.016-.889-2.912z" fill="#1C83FF"/></svg>