<svg width="44" height="23" fill="none" xmlns="http://www.w3.org/2000/svg"><path d="M27.86 19.513a2.175 2.175 0 01-.71-3.005 2.188 2.188 0 013.013-.708c.48.3 1.012.531 1.569.685a6.2 6.2 0 006.072-1.564A6.165 6.165 0 0033.43 4.398a6.201 6.201 0 00-5.74 3.852c-.008.016-.016.039-.023.054l-.518 1.38a1.325 1.325 0 01-.093.246l-4.38 11.647c-.178.47-.51.878-.981 1.14a2.189 2.189 0 01-2.983-.832l-3.577-6.309-3.716 6.325a2.193 2.193 0 01-3.925-.3L.157 3.211A2.176 2.176 0 011.385.377a2.193 2.193 0 012.843 1.225L9.906 15.83l3.384-5.754a2.189 2.189 0 012.998-.778c.378.223.664.54.85.901l3.09 5.447 2.727-7.265a3.403 3.403 0 00.124-.963 3.667 3.667 0 00-1.77-3.143 2.18 2.18 0 01-.757-2.996 2.196 2.196 0 013.006-.755 8.006 8.006 0 012.541 2.411A10.57 10.57 0 0133.423 0c2.92 0 5.57 1.179 7.479 3.09A10.493 10.493 0 0144 10.545a10.48 10.48 0 01-3.098 7.457 10.554 10.554 0 01-10.376 2.68 10.33 10.33 0 01-2.665-1.17zM10.502 3.382a2.179 2.179 0 01.981-2.928 2.191 2.191 0 012.936.979l1.468 2.927a2.19 2.19 0 01-3.917 1.957L10.5 3.382z" fill="#1C83FF"/></svg>