<svg width="88" height="86" fill="none" xmlns="http://www.w3.org/2000/svg"><path d="M56.54 32h-1.621l5.76-9.53h1.62L56.538 32zm-2.615-8.945c.472-.454 1.062-.681 1.77-.681s1.298.227 1.77.68c.463.446.694 1.008.694 1.689 0 .68-.231 1.244-.694 1.688-.472.454-1.062.681-1.77.681s-1.298-.227-1.77-.68c-.463-.445-.694-1.008-.694-1.689 0-.68.231-1.243.694-1.688zm1.144 2.355a.825.825 0 00.626.259.825.825 0 00.626-.259.961.961 0 00.245-.667.912.912 0 00-.245-.653.805.805 0 00-.626-.273.805.805 0 00-.626.273.912.912 0 00-.245.653c0 .263.081.486.245.667zm4.67 2.628c.472-.454 1.062-.68 1.77-.68s1.298.226 1.77.68c.463.454.694 1.017.694 1.688 0 .672-.231 1.235-.694 1.689-.472.453-1.062.68-1.77.68s-1.298-.227-1.77-.68c-.463-.445-.695-1.008-.695-1.689 0-.68.232-1.243.695-1.688zm1.143 2.355a.825.825 0 00.627.26.825.825 0 00.626-.26.962.962 0 00.245-.667.913.913 0 00-.245-.653.805.805 0 00-.626-.273.805.805 0 00-.627.273.913.913 0 00-.245.653.96.96 0 00.245.667z" fill="#1C4F94"/><path d="M56.54 32h-1.621l5.76-9.53h1.62L56.538 32zm-2.615-8.945c.472-.454 1.062-.681 1.77-.681s1.298.227 1.77.68c.463.446.694 1.008.694 1.689 0 .68-.231 1.244-.694 1.688-.472.454-1.062.681-1.77.681s-1.298-.227-1.77-.68c-.463-.445-.694-1.008-.694-1.689 0-.68.231-1.243.694-1.688zm1.144 2.355a.825.825 0 00.626.259.825.825 0 00.626-.259.961.961 0 00.245-.667.912.912 0 00-.245-.653.805.805 0 00-.626-.273.805.805 0 00-.626.273.912.912 0 00-.245.653c0 .263.081.486.245.667zm4.67 2.628c.472-.454 1.062-.68 1.77-.68s1.298.226 1.77.68c.463.454.694 1.017.694 1.688 0 .672-.231 1.235-.694 1.689-.472.453-1.062.68-1.77.68s-1.298-.227-1.77-.68c-.463-.445-.695-1.008-.695-1.689 0-.68.232-1.243.695-1.688zm1.143 2.355a.825.825 0 00.627.26.825.825 0 00.626-.26.962.962 0 00.245-.667.913.913 0 00-.245-.653.805.805 0 00-.626-.273.805.805 0 00-.627.273.913.913 0 00-.245.653.96.96 0 00.245.667z" fill="#9A7EE9"/><path d="M66.099 35.468c4.398-4.18 4.576-11.134.396-15.532s-11.133-4.575-15.53-.396c-4.4 4.18-4.577 11.133-.397 15.531" stroke="#9A7EE9" stroke-width="2.679"/><path d="M21 41.951v-4.927a7 7 0 014.117-6.377L36.5 25.5" stroke="#fff" stroke-width="3" stroke-linejoin="bevel"/><path d="M35.088 34.953H67.28a6 6 0 016 6V67.86a6 6 0 01-6 6H27a6 6 0 01-6-6V40.953a6 6 0 016-6h8.5" stroke="#fff" stroke-width="3" stroke-linecap="round"/><path d="M73.28 59h-3.5a2.5 2.5 0 01-2.5-2.5v-3a2.5 2.5 0 012.5-2.5h3.5" stroke="#fff" stroke-width="3"/><path d="M47.996 60.726c-.7-.412-.922-1.291-.485-1.96.432-.668 1.354-.879 2.055-.462.326.196.69.347 1.07.447.368.1.758.156 1.158.156a4.327 4.327 0 002.981-1.176 3.915 3.915 0 001.233-2.843c0-1.11-.474-2.115-1.233-2.844a4.304 4.304 0 00-2.981-1.175c-.859 0-1.675.246-2.36.688a4.088 4.088 0 00-1.554 1.824c-.005.01-.01.025-.016.035l-.353.9a.86.86 0 01-.063.16l-2.986 7.596a1.437 1.437 0 01-.67.744c-.716.386-1.627.145-2.033-.543l-2.439-4.115-2.533 4.125a1.46 1.46 0 01-.738.603c-.769.291-1.633-.07-1.938-.799l-5.004-11.992c-.306-.733.068-1.557.837-1.849.77-.291 1.633.07 1.939.799l3.871 9.28 2.307-3.754c.416-.678 1.333-.909 2.044-.507.258.146.453.352.58.588l2.107 3.552 1.86-4.738a2.113 2.113 0 00.083-.628 2.31 2.31 0 00-.32-1.175 2.44 2.44 0 00-.886-.875c-.711-.402-.938-1.28-.516-1.954.427-.678 1.343-.894 2.049-.492.706.401 1.29.944 1.733 1.572.3-.271.622-.522.959-.738A7.441 7.441 0 0151.789 48c1.99 0 3.798.769 5.099 2.015C58.194 51.26 59 52.979 59 54.878c0 1.899-.806 3.622-2.112 4.863a7.365 7.365 0 01-5.1 2.015 7.44 7.44 0 01-1.975-.267 7.21 7.21 0 01-1.817-.763zM36.16 50.206c-.369-.704-.069-1.558.669-1.91.737-.351 1.633-.065 2.002.639l1 1.909c.369.703.069 1.557-.669 1.914-.737.351-1.633.065-2.001-.638l-1.001-1.914z" fill="#fff"/><path d="M41.81 22h-1.296l4.607-7.625h1.297L41.81 22zm-2.091-7.156c.377-.363.85-.545 1.416-.545s1.038.182 1.416.545c.37.356.555.806.555 1.35 0 .545-.185.995-.555 1.351-.378.363-.85.545-1.416.545s-1.038-.182-1.416-.545c-.37-.356-.556-.806-.556-1.35 0-.545.186-.995.556-1.351zm.915 1.884a.66.66 0 00.5.207.66.66 0 00.502-.207.769.769 0 00.196-.534.73.73 0 00-.196-.522.644.644 0 00-.501-.218.644.644 0 00-.501.218.73.73 0 00-.196.522c0 .211.065.389.196.534zm3.736 2.102c.378-.363.85-.544 1.416-.544s1.038.181 1.416.544c.37.363.555.814.555 1.351s-.185.988-.555 1.35c-.378.364-.85.545-1.416.545-.567 0-1.038-.181-1.416-.544-.37-.356-.556-.806-.556-1.351 0-.545.186-.995.556-1.35zm.915 1.885a.66.66 0 00.5.207.66.66 0 00.502-.207.769.769 0 00.196-.534.73.73 0 00-.196-.523.644.644 0 00-.501-.218.644.644 0 00-.501.218.73.73 0 00-.196.523c0 .21.065.389.196.534z" fill="#1C4F94"/><path d="M41.81 22h-1.296l4.607-7.625h1.297L41.81 22zm-2.091-7.156c.377-.363.85-.545 1.416-.545s1.038.182 1.416.545c.37.356.555.806.555 1.35 0 .545-.185.995-.555 1.351-.378.363-.85.545-1.416.545s-1.038-.182-1.416-.545c-.37-.356-.556-.806-.556-1.35 0-.545.186-.995.556-1.351zm.915 1.884a.66.66 0 00.5.207.66.66 0 00.502-.207.769.769 0 00.196-.534.73.73 0 00-.196-.522.644.644 0 00-.501-.218.644.644 0 00-.501.218.73.73 0 00-.196.522c0 .211.065.389.196.534zm3.736 2.102c.378-.363.85-.544 1.416-.544s1.038.181 1.416.544c.37.363.555.814.555 1.351s-.185.988-.555 1.35c-.378.364-.85.545-1.416.545-.567 0-1.038-.181-1.416-.544-.37-.356-.556-.806-.556-1.351 0-.545.186-.995.556-1.35zm.915 1.885a.66.66 0 00.5.207.66.66 0 00.502-.207.769.769 0 00.196-.534.73.73 0 00-.196-.523.644.644 0 00-.501-.218.644.644 0 00-.501.218.73.73 0 00-.196.523c0 .21.065.389.196.534z" fill="#9A7EE9"/><path d="M52.477 18.88a8.94 8.94 0 10-5.286 7.825" stroke="#9A7EE9" stroke-width="2.679"/></svg>