<svg width="88" height="86" fill="none" xmlns="http://www.w3.org/2000/svg"><path d="M40.339 53h-2.516l12.4-20.968h2.487L40.339 53zM39.2 31.643c1.498 0 2.736.49 3.715 1.468.978.978 1.468 2.186 1.468 3.624 0 1.438-.49 2.646-1.468 3.624-.979.959-2.217 1.438-3.715 1.438-1.457 0-2.685-.479-3.684-1.438-.958-.998-1.438-2.206-1.438-3.624 0-1.418.48-2.626 1.438-3.624.979-.979 2.207-1.468 3.684-1.468zm0 7.968c.82 0 1.488-.27 2.007-.81.54-.558.81-1.247.81-2.066 0-.839-.26-1.528-.78-2.067-.519-.539-1.198-.809-2.037-.809-.798 0-1.457.28-1.977.84-.519.538-.778 1.217-.778 2.036s.26 1.508.779 2.067c.519.539 1.178.809 1.976.809zm12.072 3.624c1.498 0 2.736.49 3.714 1.468.979.978 1.468 2.176 1.468 3.594 0 1.438-.49 2.646-1.468 3.625-.978.978-2.216 1.467-3.714 1.467-1.478 0-2.706-.489-3.684-1.467-.959-.979-1.438-2.187-1.438-3.625 0-1.418.479-2.616 1.438-3.594.978-.979 2.206-1.468 3.684-1.468zm0 7.938c.839 0 1.517-.27 2.037-.809.519-.54.779-1.228.779-2.067 0-.819-.27-1.497-.81-2.037-.518-.559-1.187-.838-2.006-.838-.799 0-1.458.28-1.977.838-.52.54-.779 1.218-.779 2.037s.26 1.508.779 2.067c.52.54 1.178.809 1.977.809z" fill="#1C4F94"/><path d="M40.339 53h-2.516l12.4-20.968h2.487L40.339 53zM39.2 31.643c1.498 0 2.736.49 3.715 1.468.978.978 1.468 2.186 1.468 3.624 0 1.438-.49 2.646-1.468 3.624-.979.959-2.217 1.438-3.715 1.438-1.457 0-2.685-.479-3.684-1.438-.958-.998-1.438-2.206-1.438-3.624 0-1.418.48-2.626 1.438-3.624.979-.979 2.207-1.468 3.684-1.468zm0 7.968c.82 0 1.488-.27 2.007-.81.54-.558.81-1.247.81-2.066 0-.839-.26-1.528-.78-2.067-.519-.539-1.198-.809-2.037-.809-.798 0-1.457.28-1.977.84-.519.538-.778 1.217-.778 2.036s.26 1.508.779 2.067c.519.539 1.178.809 1.976.809zm12.072 3.624c1.498 0 2.736.49 3.714 1.468.979.978 1.468 2.176 1.468 3.594 0 1.438-.49 2.646-1.468 3.625-.978.978-2.216 1.467-3.714 1.467-1.478 0-2.706-.489-3.684-1.467-.959-.979-1.438-2.187-1.438-3.625 0-1.418.479-2.616 1.438-3.594.978-.979 2.206-1.468 3.684-1.468zm0 7.938c.839 0 1.517-.27 2.037-.809.519-.54.779-1.228.779-2.067 0-.819-.27-1.497-.81-2.037-.518-.559-1.187-.838-2.006-.838-.799 0-1.458.28-1.977.838-.52.54-.779 1.218-.779 2.037s.26 1.508.779 2.067c.52.54 1.178.809 1.977.809z" fill="#9A7EE9"/><path d="M75.224 41.908c-.53-12.583-8.994-23.97-21.766-27.63-15.961-4.571-32.607 4.661-37.18 20.623-4.571 15.961 4.661 32.607 20.623 37.18 12.228 3.502 24.859-1.098 32.154-10.62" stroke="#fff" stroke-width="3"/><path d="M71 43.5l4.733 4.128 3.917-4.63L71 43.5z" fill="#fff"/><path d="M79.65 43v0m0 0l-3.917 4.629L71 43.5l8.65-.501z" stroke="#fff" stroke-width="3" stroke-linecap="round" stroke-linejoin="round"/></svg>