<svg width="88" height="88" fill="none" xmlns="http://www.w3.org/2000/svg"><path d="M32.965 71.103c-1.356 0-2.479-.362-3.367-1.087-.883-.73-1.344-1.668-1.385-2.814h2.446c.076.538.327.973.754 1.306.432.334.955.5 1.57.5.689 0 1.25-.216 1.682-.649.439-.438.658-1.002.658-1.692 0-.701-.216-1.274-.649-1.718-.432-.444-.99-.666-1.674-.666-.48 0-.915.105-1.307.315-.385.205-.69.488-.911.85h-2.367l.622-7.276h8.048v2.104h-5.97l-.29 3.463h.053A2.71 2.71 0 0132 62.722c.491-.245 1.055-.368 1.692-.368 1.21 0 2.204.4 2.981 1.201.783.795 1.175 1.809 1.175 3.042 0 1.339-.453 2.426-1.36 3.262-.9.83-2.074 1.244-3.523 1.244zm15.052-1.779c-.905 1.186-2.153 1.78-3.743 1.78-1.59 0-2.84-.59-3.752-1.772-.912-1.186-1.368-2.805-1.368-4.856 0-2.04.456-3.648 1.368-4.822.917-1.18 2.168-1.771 3.752-1.771 1.584 0 2.832.587 3.743 1.762.912 1.175 1.368 2.782 1.368 4.822 0 2.046-.456 3.664-1.367 4.857zm-5.531-1.526c.432.79 1.028 1.184 1.788 1.184s1.353-.392 1.78-1.175c.426-.789.64-1.9.64-3.331 0-1.42-.217-2.52-.649-3.297-.427-.783-1.017-1.175-1.771-1.175s-1.347.392-1.78 1.175c-.432.783-.648 1.882-.648 3.297 0 1.426.213 2.533.64 3.322zm17.227 1.526c-.906 1.186-2.154 1.78-3.744 1.78-1.59 0-2.84-.59-3.752-1.772-.912-1.186-1.368-2.805-1.368-4.856 0-2.04.456-3.648 1.368-4.822.918-1.18 2.168-1.771 3.752-1.771 1.584 0 2.832.587 3.744 1.762.911 1.175 1.367 2.782 1.367 4.822 0 2.046-.456 3.664-1.367 4.857zm-5.532-1.526c.432.79 1.028 1.184 1.788 1.184s1.353-.392 1.78-1.175c.427-.789.64-1.9.64-3.331 0-1.42-.216-2.52-.649-3.297-.427-.783-1.017-1.175-1.77-1.175-.755 0-1.348.392-1.78 1.175-.433.783-.65 1.882-.65 3.297 0 1.426.214 2.533.64 3.322z" fill="#fff"/><circle cx="44.647" cy="26.93" r="10.411" stroke="#9A7EE9" stroke-width="3" stroke-linecap="round" stroke-linejoin="round"/><path d="M22.469 47.775a26.39 26.39 0 01-4.174-13.66C17.942 19.476 29.522 7.323 44.161 6.97c14.64-.354 26.793 11.227 27.146 25.866A26.394 26.394 0 0168.282 45.8" stroke="#fff" stroke-width="3" stroke-linejoin="round"/><path d="M57.562 50.063c0-3.566-5.056-7.723-12.188-7.723-7.132 0-13.64 4.157-13.64 7.723v.772" stroke="#9A7EE9" stroke-width="3" stroke-linejoin="round"/><path d="M21.724 84.41V69.387m7.509 7.507H14.21" stroke="#fff" stroke-width="3"/><path d="M21.723 65.537v-8.141a6.887 6.887 0 016.886-6.887h33.366a6.887 6.887 0 016.887 6.887v12.612a6.887 6.887 0 01-6.887 6.886H32.397" stroke="#fff" stroke-width="3" stroke-linejoin="round"/></svg>