<svg width="88" height="88" fill="none" xmlns="http://www.w3.org/2000/svg"><path d="M47.264 40.69c0-2.262.814-4.116 2.442-5.564 1.63-1.459 3.71-2.188 6.243-2.188 2.432 0 4.434.661 6.006 1.984 1.583 1.324 2.375 2.98 2.375 4.97 0 1.37-.385 2.664-1.154 3.886-.758 1.21-2.019 2.703-3.783 4.478l-6.056 5.989v.084h11.366v3.58H47.5v-2.952L56.51 46c1.391-1.425 2.33-2.539 2.816-3.342.486-.803.73-1.663.73-2.579 0-1.017-.407-1.877-1.222-2.578-.803-.701-1.81-1.052-3.02-1.052-1.277 0-2.34.402-3.189 1.205-.837.802-1.255 1.81-1.255 3.02v.067h-4.105v-.05z" fill="#9A7EE9"/><path d="M39.827 41.512L27.163 54.176m12.667.004L26.498 41.516" stroke="#9A7EE9" stroke-width="3.266" stroke-linejoin="round"/><path d="M19.923 31.965a12 12 0 0111.78-9.711h37.903c5.03 0 8.813 4.587 7.853 9.526l-6.072 31.256a12 12 0 01-11.78 9.712H21.704c-5.03 0-8.813-4.588-7.853-9.526l6.072-31.257z" stroke="#fff" stroke-width="4" stroke-linecap="round" stroke-linejoin="round"/></svg>