<svg width="70" height="67" fill="none" xmlns="http://www.w3.org/2000/svg"><rect x="12.173" y="7" width="57.827" height="40.539" rx="6.711" fill="#4060F6"/><rect x="7" y="15" width="57.827" height="40.539" rx="7.024" fill="#40CAF6"/><rect x="7" y="15" width="57.827" height="40.539" rx="7.024" fill="url(#paint0_linear)"/><rect width="57.827" height="40.539" rx="7.024" transform="matrix(1.00001 0 .00007 1 .312 24.594)" fill="url(#paint1_linear)"/><path d="M41.412 52.33l-2.928 6.296-1.936.011-1.493-5.007c-.086-.312-.171-.416-.441-.548-.439-.206-1.181-.41-1.821-.526l.05-.179 3.114-.017c.404-.002.759.234.845.635l.795 3.627 1.895-4.282 1.92-.01zm7.65 4.198c-.01-1.652-2.602-1.741-2.59-2.47-.001-.224.25-.463.772-.526a3.817 3.817 0 011.82.273l.312-1.341a5.71 5.71 0 00-1.719-.274c-1.818.01-3.093.866-3.086 2.101-.012.908.917 1.409 1.609 1.703.726.308.962.5.964.768.002.417-.569.614-1.09.617-.927.02-1.467-.215-1.889-.392l-.329 1.371c.439.177 1.231.32 2.04.316 1.919.005 3.177-.85 3.186-2.146zm4.81 2.012l1.7-.01-1.517-6.271-1.566.009c-.353.002-.655.182-.788.465l-2.729 5.835 1.937-.011.382-.94 2.357-.013.224.936zm-2.067-2.206l.947-2.371.569 2.363-1.516.008zm-7.767-4.02l-1.48 6.29-1.835.01 1.48-6.289 1.835-.01z" fill="#fff"/><rect x="8" y="32" width="16" height="16" rx="5.069" fill="#1C4F94"/><rect x="8" y="32" width="16" height="16" rx="5.069" fill="#FEFEFF"/><path d="M16 35v10m5-5H11" stroke="#1C4F94" stroke-width="2.237"/><defs><linearGradient id="paint0_linear" x1="74.133" y1=".646" x2="35.616" y2="35.046" gradientUnits="userSpaceOnUse"><stop stop-color="#fff"/><stop offset="1" stop-color="#fff" stop-opacity="0"/></linearGradient><linearGradient id="paint1_linear" x1="76.287" y1="46.041" x2="-13.309" y2="48.044" gradientUnits="userSpaceOnUse"><stop stop-color="#940ADE"/><stop offset="1" stop-color="#1C83FF"/></linearGradient></defs></svg>