<svg width="70" height="48" fill="none" xmlns="http://www.w3.org/2000/svg"><rect x="2" y=".5" width="66" height="47.352" rx="7.106" fill="url(#paint0_linear)"/><path d="M45.846 33.837l-3.068 6.677h-2.005l-1.516-5.332c-.087-.332-.174-.443-.453-.585-.454-.222-1.22-.443-1.883-.57l.052-.19h3.225c.419 0 .785.253.872.68l.802 3.861 1.987-4.54h1.987zm7.897 4.51c0-1.757-2.685-1.867-2.667-2.643 0-.237.261-.49.802-.553a3.856 3.856 0 011.882.3l.332-1.424c-.454-.142-1.046-.3-1.779-.3-1.882 0-3.207.902-3.207 2.215-.017.965.941 1.503 1.656 1.82.75.332.994.537.994.822 0 .443-.593.649-1.133.649-.96.016-1.517-.237-1.953-.427l-.349 1.455c.454.19 1.273.348 2.11.348 1.987.016 3.294-.886 3.312-2.262zm4.968 2.167h1.76l-1.533-6.677h-1.622c-.366 0-.68.19-.819.49l-2.859 6.188h2.005l.4-.997h2.441l.227.996zm-2.127-2.357l.994-2.516.575 2.516h-1.569zm-8.019-4.32l-1.568 6.677h-1.9l1.568-6.677h1.9z" fill="#fff"/><path d="M36.638 22.293h-.274c-.476-.064-.876-.31-1.292-.532-.496-.266-1.03-.271-1.553-.075-.278.105-.537.264-.808.391-.745.348-1.462.238-2.107-.226a7.988 7.988 0 01-1.153-1.045c-.847-.909-1.4-1.994-1.68-3.21a12.25 12.25 0 01-.251-1.675c-.04-.45-.005-.905-.001-1.358a5.595 5.595 0 01.255-1.696c.257-.785.787-1.337 1.434-1.806.904-.653 1.894-.883 2.968-.637.47.108.921.302 1.372.481.27.108.526.128.792.012.079-.035.161-.06.24-.094.679-.288 1.372-.512 2.117-.528.518-.011 1.027.027 1.525.177.509.154.882.514 1.261.862.158.146.294.316.448.483-.107.063-.187.106-.262.158-1.147.789-1.559 1.924-1.454 3.284.053.699.309 1.33.754 1.872.345.418.758.739 1.283.89v.03c-.016.032-.034.063-.046.095-.456 1.222-1.131 2.299-2.086 3.177-.438.403-.87.833-1.482.97z" fill="#1C4F94"/><path d="M36.638 22.293h-.274c-.476-.064-.876-.31-1.292-.532-.496-.266-1.03-.271-1.553-.075-.278.105-.537.264-.808.391-.745.348-1.462.238-2.107-.226a7.988 7.988 0 01-1.153-1.045c-.847-.909-1.4-1.994-1.68-3.21a12.25 12.25 0 01-.251-1.675c-.04-.45-.005-.905-.001-1.358a5.595 5.595 0 01.255-1.696c.257-.785.787-1.337 1.434-1.806.904-.653 1.894-.883 2.968-.637.47.108.921.302 1.372.481.27.108.526.128.792.012.079-.035.161-.06.24-.094.679-.288 1.372-.512 2.117-.528.518-.011 1.027.027 1.525.177.509.154.882.514 1.261.862.158.146.294.316.448.483-.107.063-.187.106-.262.158-1.147.789-1.559 1.924-1.454 3.284.053.699.309 1.33.754 1.872.345.418.758.739 1.283.89v.03c-.016.032-.034.063-.046.095-.456 1.222-1.131 2.299-2.086 3.177-.438.403-.87.833-1.482.97z" fill="#FEFEFF"/><path d="M36.327 6.293c.082 2.37-1.75 3.692-3.368 3.686.047-.28.078-.561.142-.834.31-1.31 1.034-2.261 2.324-2.686.287-.094.597-.112.902-.166z" fill="#1C4F94"/><path d="M36.327 6.293c.082 2.37-1.75 3.692-3.368 3.686.047-.28.078-.561.142-.834.31-1.31 1.034-2.261 2.324-2.686.287-.094.597-.112.902-.166z" fill="#FEFEFF"/><rect x="7.886" y="6.293" width="15.693" height="16.142" rx="5.069" fill="#1C4F94"/><rect x="7.886" y="6.293" width="15.693" height="16.142" rx="5.069" fill="#FEFEFF"/><path d="M10.941 11.77h1.893c.48 0 .868.149 1.165.447.298.298.448.69.448 1.177 0 .484-.154.877-.461 1.177-.308.298-.708.447-1.2.447h-.87v1.496h-.975V11.77zm.974.785v1.687h.658c.28 0 .497-.073.652-.22.155-.147.232-.355.232-.625s-.078-.477-.232-.621c-.153-.147-.369-.22-.649-.22h-.66z" fill="#1C4F94"/><path d="M10.941 11.77h1.893c.48 0 .868.149 1.165.447.298.298.448.69.448 1.177 0 .484-.154.877-.461 1.177-.308.298-.708.447-1.2.447h-.87v1.496h-.975V11.77zm.974.785v1.687h.658c.28 0 .497-.073.652-.22.155-.147.232-.355.232-.625s-.078-.477-.232-.621c-.153-.147-.369-.22-.649-.22h-.66zm4.138 3.321a.788.788 0 00.529-.184.593.593 0 00.22-.47v-.257l-.73.046a.736.736 0 00-.41.135.37.37 0 00-.141.303c0 .131.048.235.145.312a.605.605 0 00.387.115zm-.31.694c-.333 0-.61-.1-.829-.3a.993.993 0 01-.328-.769c0-.32.116-.57.348-.753.232-.181.564-.286.996-.312l.871-.053v-.233a.48.48 0 00-.158-.381.612.612 0 00-.422-.139.706.706 0 00-.423.119.486.486 0 00-.197.319h-.86c.017-.346.162-.625.435-.835.273-.213.635-.32 1.087-.32.442 0 .797.108 1.064.323.266.215.4.5.4.855v2.423h-.91v-.54h-.02c-.094.185-.238.33-.431.438a1.283 1.283 0 01-.623.158z" fill="#1C4F94"/><path d="M16.053 15.876a.788.788 0 00.529-.184.593.593 0 00.22-.47v-.257l-.73.046a.736.736 0 00-.41.135.37.37 0 00-.141.303c0 .131.048.235.145.312a.605.605 0 00.387.115zm-.31.694c-.333 0-.61-.1-.829-.3a.993.993 0 01-.328-.769c0-.32.116-.57.348-.753.232-.181.564-.286.996-.312l.871-.053v-.233a.48.48 0 00-.158-.381.612.612 0 00-.422-.139.706.706 0 00-.423.119.486.486 0 00-.197.319h-.86c.017-.346.162-.625.435-.835.273-.213.635-.32 1.087-.32.442 0 .797.108 1.064.323.266.215.4.5.4.855v2.423h-.91v-.54h-.02c-.094.185-.238.33-.431.438a1.283 1.283 0 01-.623.158zm3.016 1.25c-.207 0-.325-.004-.355-.01v-.74c.02.004.098.006.235.006.175 0 .307-.03.397-.092a.462.462 0 00.184-.299l.016-.082a.373.373 0 00.013-.086l-1.203-3.528h1.035l.736 2.756h.016l.735-2.756h.993l-1.19 3.604c-.148.451-.344.768-.587.95-.24.184-.582.276-1.025.276z" fill="#1C4F94"/><path d="M18.759 17.82c-.207 0-.325-.004-.355-.01v-.74c.02.004.098.006.235.006.175 0 .307-.03.397-.092a.462.462 0 00.184-.299l.016-.082a.373.373 0 00.013-.086l-1.203-3.528h1.035l.736 2.756h.016l.735-2.756h.993l-1.19 3.604c-.148.451-.344.768-.587.95-.24.184-.582.276-1.025.276z" fill="#1C4F94"/><defs><linearGradient id="paint0_linear" x1="89.07" y1="54.278" x2="-13.192" y2="56.511" gradientUnits="userSpaceOnUse"><stop stop-color="#940ADE"/><stop offset="1" stop-color="#1C83FF"/></linearGradient></defs></svg>