<svg width="70" height="50" fill="none" xmlns="http://www.w3.org/2000/svg"><rect x="2" y=".5" width="66" height="49" rx="7.354" fill="url(#paint0_linear)"/><path d="M46.263 35.001l-3.237 6.91H40.91l-1.6-5.518c-.092-.344-.184-.458-.478-.606-.478-.229-1.287-.458-1.986-.59l.055-.196h3.402c.442 0 .828.262.92.705l.846 3.995 2.097-4.7h2.097zm8.332 4.667c0-1.818-2.833-1.932-2.814-2.734 0-.246.275-.508.846-.574a4.14 4.14 0 011.986.312l.35-1.474c-.479-.148-1.104-.311-1.877-.311-1.986 0-3.384.933-3.384 2.292-.018.999.993 1.556 1.747 1.883.791.344 1.049.557 1.049.852 0 .458-.625.671-1.196.671-1.011.017-1.6-.245-2.06-.442l-.367 1.507c.478.196 1.342.36 2.225.36 2.097.016 3.476-.917 3.495-2.342zm5.242 2.243h1.857l-1.618-6.91h-1.71c-.387 0-.718.197-.865.508l-3.017 6.402H56.6l.423-1.031h2.575l.24 1.031zm-2.244-2.44l1.048-2.603.607 2.604h-1.655zm-8.461-4.47l-1.655 6.91h-2.005l1.655-6.91h2.005z" fill="#fff"/><rect x="7" y="6.5" width="33" height="17" rx="5.069" fill="#1C4F94"/><rect x="7" y="6.5" width="33" height="17" rx="5.069" fill="#FEFEFF"/><path d="M15.916 17.63v.87h-4.802v-7.75h4.802v.87h-3.835v2.486h3.636v.86h-3.636v2.664h3.835zm5.774-2.884h-.913a1.41 1.41 0 00-.478-.795c-.244-.208-.56-.312-.95-.312-.488 0-.88.188-1.177.564-.297.373-.446.874-.446 1.504 0 .641.149 1.146.446 1.515.3.368.696.553 1.187.553.376 0 .686-.093.93-.28a1.37 1.37 0 00.493-.794h.919a2.044 2.044 0 01-.758 1.37c-.43.35-.96.526-1.59.526-.78 0-1.405-.258-1.874-.774-.47-.519-.704-1.224-.704-2.116 0-.877.235-1.577.704-2.1.47-.526 1.09-.79 1.864-.79.666 0 1.206.188 1.622.564.419.376.66.831.725 1.365zm3.185 3.85c-.78 0-1.407-.259-1.88-.778-.473-.523-.709-1.227-.709-2.111 0-.884.236-1.586.71-2.105.472-.523 1.098-.785 1.879-.785.777 0 1.402.262 1.875.785.472.519.709 1.22.709 2.105 0 .88-.237 1.583-.71 2.105-.472.523-1.097.785-1.874.785zm-1.198-1.369c.297.365.697.548 1.198.548s.899-.18 1.192-.543c.294-.365.44-.873.44-1.525 0-.652-.146-1.158-.44-1.52-.293-.365-.69-.548-1.192-.548-.501 0-.9.183-1.198.548-.293.365-.44.872-.44 1.52s.147 1.155.44 1.52zm4.727 1.273v-5.586h.88v.892h.022c.136-.305.342-.545.618-.72.276-.18.598-.269.967-.269.38 0 .705.094.977.28.272.182.47.444.591.784h.021c.154-.333.385-.593.693-.779.312-.19.665-.285 1.058-.285.552 0 .992.167 1.322.5.333.33.5.771.5 1.327V18.5h-.935v-3.642c0-.383-.102-.68-.306-.891-.201-.215-.486-.322-.854-.322-.37 0-.672.123-.908.37-.236.244-.355.555-.355.935v3.55h-.934v-3.744c0-.336-.104-.605-.312-.805-.208-.204-.485-.306-.832-.306a1.21 1.21 0 00-.919.386c-.24.258-.36.58-.36.967V18.5h-.934z" fill="#465AF4"/><defs><linearGradient id="paint0_linear" x1="89.07" y1="56.15" x2="-13.195" y2="58.308" gradientUnits="userSpaceOnUse"><stop stop-color="#940ADE"/><stop offset="1" stop-color="#1C83FF"/></linearGradient></defs></svg>