<svg width="40" height="41" fill="none" xmlns="http://www.w3.org/2000/svg">
    <circle cx="20" cy="20.5" r="20" fill="#F4F6FD" />
    <g clip-path="url(#clip0)" stroke="#258CFF" stroke-width="2.662">
        <path
            d="M31.933 20.102c-.218-5.15-3.682-9.813-8.91-11.31-6.535-1.872-13.349 1.907-15.22 8.441-1.872 6.535 1.907 13.349 8.441 15.22 5.006 1.435 10.177-.448 13.163-4.346" />
        <path d="M34.667 20.416h0m0 0l-2.544 2.29-2.925-2.29h5.469z" stroke-linecap="round" stroke-linejoin="round" />
    </g>
    <path
        d="M17.224 26.832H15.39l7.588-12.708h1.834l-7.588 12.708zm4.32-5.21c.593-.593 1.362-.89 2.306-.89s1.712.297 2.305.89c.605.605.908 1.343.908 2.215 0 .871-.303 1.61-.908 2.214-.593.593-1.361.89-2.305.89-.944 0-1.713-.297-2.306-.89-.605-.605-.907-1.343-.907-2.214 0-.872.302-1.61.907-2.215zm1.253 3.268c.278.278.63.417 1.053.417.411 0 .756-.14 1.034-.417.279-.279.418-.63.418-1.053 0-.424-.14-.775-.418-1.053a1.405 1.405 0 00-1.034-.418c-.424 0-.775.14-1.053.418-.266.278-.4.63-.4 1.053 0 .423.134.774.4 1.053zm-8.787-9.985c.593-.593 1.362-.89 2.306-.89s1.712.297 2.306.89c.605.605.907 1.343.907 2.215 0 .871-.302 1.61-.907 2.214-.594.593-1.362.89-2.306.89s-1.713-.297-2.306-.89c-.605-.605-.907-1.343-.907-2.214 0-.872.302-1.61.907-2.215zm1.253 3.268c.278.278.63.417 1.053.417.411 0 .756-.139 1.035-.417.278-.279.417-.63.417-1.053 0-.424-.139-.775-.417-1.053a1.405 1.405 0 00-1.035-.418c-.424 0-.775.14-1.053.418-.266.278-.4.63-.4 1.053 0 .423.134.774.4 1.053z"
        fill="#1C4F94" />
    <defs>
        <clipPath id="clip0">
            <path fill="#fff" transform="translate(6 5.5)" d="M0 0h30.167v30.167H0z" />
        </clipPath>
    </defs>
</svg>