<svg width="41" height="26" viewBox="0 0 41 26" fill="none" xmlns="http://www.w3.org/2000/svg">
<mask id="mask0" style="mask-type:alpha" maskUnits="userSpaceOnUse" x="0" y="0" width="41" height="26">
<rect x="40.3037" y="25.2383" width="39.9996" height="25.2341" rx="1.06765" transform="rotate(-180 40.3037 25.2383)" fill="#1B64DC"/>
</mask>
<g mask="url(#mask0)">
<rect x="40.3037" y="25.2383" width="39.9996" height="25.2341" rx="3.6" transform="rotate(-180 40.3037 25.2383)" fill="#258CFF"/>
</g>
<rect x="8.97363" y="6.01953" width="1.61105" height="11.2774" fill="white"/>
<rect x="15.418" y="10.8516" width="1.61105" height="11.2774" transform="rotate(90 15.418 10.8516)" fill="white"/>
<path d="M27.0637 16.0805L24.9793 20.9309H23.6173L22.587 17.0574C22.5278 16.8161 22.4685 16.7356 22.2791 16.6322C21.9711 16.4713 21.45 16.3103 21 16.2184L21.0355 16.0805H23.2265C23.5107 16.0805 23.7594 16.2644 23.8187 16.5747L24.3634 19.3792L25.7135 16.0805H27.0637ZM32.4286 19.3562C32.4286 18.0804 30.6047 17.9999 30.6166 17.4367C30.6166 17.2643 30.7942 17.0804 31.1614 17.0345C31.3509 17.0115 31.8601 16.9885 32.4404 17.2528L32.6654 16.2184C32.3575 16.1149 31.9548 16 31.4574 16C30.1784 16 29.2783 16.6552 29.2783 17.6091C29.2665 18.3103 29.9178 18.7011 30.4034 18.9309C30.9127 19.1723 31.0785 19.3217 31.0785 19.5286C31.0785 19.8505 30.6758 19.9999 30.3087 19.9999C29.6573 20.0114 29.2783 19.8275 28.9822 19.6895L28.7454 20.747C29.0533 20.8849 29.6099 20.9999 30.1784 20.9999C31.5285 21.0113 32.4167 20.3562 32.4286 19.3562ZM35.8039 20.9309H37L35.9578 16.0805H34.8564C34.6077 16.0805 34.3945 16.2184 34.2998 16.4368L32.3575 20.9309H33.7195L33.9919 20.2068H35.6499L35.8039 20.9309ZM34.359 19.2183L35.0341 17.3908L35.4249 19.2183H34.359ZM28.9112 16.0805L27.8453 20.9309H26.5544L27.6203 16.0805H28.9112Z" fill="white"/>
</svg>
