<svg width="102" height="103" viewBox="0 0 102 103" fill="none" xmlns="http://www.w3.org/2000/svg">
<path d="M87.0713 94.3112V70.1719" stroke="white" stroke-width="6.00906"/>
<path d="M75.0004 70.1719L99.1396 70.1719" stroke="white" stroke-width="6.00906"/>
<path d="M75.0072 57.5L99.1465 57.5" stroke="white" stroke-width="6.00906"/>
<path d="M30.8114 94.883C21.1772 94.883 13.6541 91.0447 8.2421 83.368C2.86846 75.653 0.181641 65.1744 0.181641 51.9322C0.181641 38.8052 2.88765 28.3842 8.29968 20.6692C13.7501 12.9158 21.254 9.03906 30.8114 9.03906C40.3688 9.03906 47.8343 12.8966 53.208 20.6116C58.62 28.2882 61.326 38.7092 61.326 51.8747C61.326 65.1168 58.6392 75.5954 53.2655 83.3105C47.8919 91.0255 40.4072 94.883 30.8114 94.883ZM15.8995 76.7469C19.4308 82.8115 24.4014 85.8438 30.8114 85.8438C37.2214 85.8438 42.1728 82.8307 45.6657 76.8045C49.1585 70.74 50.905 62.4492 50.905 51.9322C50.905 41.5688 49.1394 33.3548 45.6081 27.2902C42.0769 21.1873 37.1446 18.1359 30.8114 18.1359C24.4782 18.1359 19.5267 21.1873 15.9571 27.2902C12.3875 33.3932 10.6027 41.588 10.6027 51.8747C10.6027 62.3916 12.3683 70.6824 15.8995 76.7469Z" fill="white"/>
</svg>
