<svg width="40" height="40" viewBox="0 0 40 40" fill="none" xmlns="http://www.w3.org/2000/svg">
<circle cx="20" cy="20" r="20" fill="#1C83FF"/>
<path d="M25.8545 29H13.9025V26.48L18.8465 21.992C19.9825 20.952 20.7585 20.12 21.1745 19.496C21.6225 18.856 21.8465 18.176 21.8465 17.456C21.8465 16.736 21.5825 16.168 21.0545 15.752C20.5265 15.32 19.8305 15.104 18.9665 15.104C17.3985 15.104 15.8865 15.744 14.4305 17.024V13.472C15.7905 12.4 17.4225 11.864 19.3265 11.864C20.9265 11.864 22.3185 12.336 23.5025 13.28C24.6865 14.224 25.2785 15.464 25.2785 17C25.2785 18.184 25.0145 19.232 24.4865 20.144C24.0065 21.008 23.0865 22.072 21.7265 23.336L18.8465 25.976H25.8545V29Z" fill="#F4F6FD"/>
</svg>
