<svg width="40" height="40" viewBox="0 0 40 40" fill="none" xmlns="http://www.w3.org/2000/svg">
<circle cx="20" cy="20" r="20" fill="#1C83FF"/>
<path d="M19.1222 29.336C17.1382 29.336 15.4342 28.888 14.0102 27.992V24.704C15.4822 25.728 17.1222 26.24 18.9302 26.24C19.9542 26.24 20.7942 25.992 21.4502 25.496C22.1062 24.984 22.4342 24.296 22.4342 23.432C22.4342 22.616 22.1302 21.96 21.5222 21.464C20.9142 20.952 20.1062 20.696 19.0982 20.696C18.2822 20.696 17.4902 20.848 16.7222 21.152V18.872L20.7302 15.176H14.5382V12.2H25.1462V14.792L21.3542 18.272C22.5542 18.48 23.6102 19.032 24.5222 19.928C25.4342 20.808 25.8902 21.976 25.8902 23.432C25.8902 25.224 25.2422 26.656 23.9462 27.728C22.6662 28.8 21.0582 29.336 19.1222 29.336Z" fill="#F4F6FD"/>
</svg>
