<svg width="128" height="22" viewBox="0 0 128 22" fill="none" xmlns="http://www.w3.org/2000/svg">
<path d="M126.664 1.06C125.886 1.06 125.22 1.676 125.22 2.46V12.54C124.609 12.932 123.998 13.212 123.387 13.436C121.721 13.996 119.833 13.94 118.222 13.268C116.945 12.708 116.112 11.644 115.779 10.356C115.556 9.46 115.556 8.564 115.556 7.668C115.556 5.82 115.112 4.42 114.723 3.468C114.279 2.516 113.835 2.012 113.779 1.9C113.279 1.34 112.335 1.284 111.78 1.788C111.225 2.292 111.169 3.188 111.669 3.748C111.669 3.748 111.947 4.084 112.224 4.7C112.669 5.82 112.78 6.94 112.78 8.116C112.78 10.02 113.168 11.98 114.279 13.548C115.057 14.668 116.278 15.508 117.556 16.012C119.722 16.852 122.165 16.852 124.387 16.068C124.609 16.012 124.831 15.9 125.053 15.844C124.72 16.964 123.831 17.804 122.776 18.252C120.666 19.148 118 18.644 116.001 17.636C115.279 17.244 114.446 17.468 114.113 18.196C113.724 18.868 113.946 19.708 114.668 20.1C116.39 21.052 118.333 21.5 120.277 21.5C121.443 21.5 122.554 21.332 123.554 20.94C125.109 20.38 126.441 19.26 127.219 17.804C127.719 16.852 127.996 15.788 127.996 14.668V2.292C128.052 1.564 127.441 1.06 126.664 1.06ZM110.669 8.844C110.669 7.668 110.169 6.38 109.559 5.372C109.392 5.036 109.17 4.812 108.948 4.532C108.448 3.916 107.615 3.804 106.948 4.252C106.338 4.756 106.171 5.596 106.671 6.212C106.837 6.38 106.948 6.604 107.059 6.772C107.559 7.612 107.781 8.564 107.781 9.46C107.781 10.356 107.559 11.364 107.059 12.148C106.56 12.988 105.893 13.66 105.005 14.164C104.116 14.668 103.172 14.892 102.283 14.892C101.339 14.892 100.395 14.668 99.5621 14.164C98.7291 13.66 98.0071 13.044 97.5073 12.148C97.0075 11.308 96.7853 10.356 96.7853 9.46C96.7853 8.564 97.0075 7.556 97.5073 6.772C98.0071 5.932 98.6736 5.26 99.5621 4.756C100.451 4.252 101.395 4.028 102.283 4.028C102.506 4.028 102.783 4.028 103.005 4.084C103.783 4.196 104.505 3.636 104.616 2.908C104.727 2.124 104.172 1.452 103.394 1.34C103.061 1.284 102.672 1.284 102.339 1.284C100.895 1.284 99.5066 1.62 98.1737 2.404C96.8409 3.188 95.7857 4.252 95.0637 5.484C94.3418 6.716 94.0086 8.116 94.0086 9.572C94.0086 10.972 94.3418 12.372 95.1193 13.716C95.8968 15.004 97.0075 16.068 98.2293 16.796C99.4511 17.468 100.895 17.86 102.339 17.86C103.783 17.86 105.171 17.524 106.504 16.74C107.504 16.18 108.392 15.396 109.059 14.5C109.392 15.228 109.781 15.9 110.169 16.516C110.614 17.188 111.502 17.356 112.113 16.908C112.78 16.516 112.946 15.62 112.502 15.004C111.391 13.156 110.669 11.084 110.669 8.844ZM88.455 13.1C88.0107 13.604 87.5109 13.996 86.9 14.276C86.2891 14.612 85.6782 14.78 84.9562 14.836C84.7341 14.892 84.4564 14.892 84.2343 14.892C83.3457 14.892 82.4571 14.724 81.5685 14.332C80.8466 13.996 80.1246 13.604 79.4582 13.044C79.4582 11.14 79.4582 7.22 79.4582 7.108C79.8469 6.212 80.4023 5.484 81.0687 4.98C81.7907 4.42 82.6237 4.084 83.6234 3.972C83.8455 3.916 84.0676 3.916 84.2898 3.916C85.6782 3.916 86.9555 4.42 87.9552 5.316C88.455 5.708 88.8437 6.268 89.1769 6.828C89.5102 7.388 89.6768 8.06 89.7878 8.732C89.8434 8.956 89.8434 9.18 89.8434 9.404C89.8434 10.86 89.3435 12.148 88.455 13.1ZM91.676 5.596C90.9541 4.308 89.8989 3.188 88.6216 2.404C87.3443 1.62 85.9003 1.228 84.2898 1.228C83.9566 1.228 83.6234 1.284 83.2901 1.284C81.7351 1.452 80.4023 2.068 79.2916 2.852C78.9583 3.076 78.6807 3.356 78.4585 3.636C78.2364 3.188 77.9587 2.796 77.7366 2.516C77.2923 1.956 76.9591 1.62 76.9035 1.564C76.2926 1.06 75.4041 1.06 74.9042 1.676C74.4044 2.236 74.4044 3.132 75.0153 3.636C75.0708 3.692 75.4596 4.028 75.7928 4.7C76.0149 5.036 76.1815 5.428 76.2926 5.876C76.4592 6.324 76.5148 6.828 76.5148 7.444C76.5148 12.092 76.5148 19.372 76.5148 19.372C76.5148 20.156 77.1257 20.772 77.9587 20.772C78.7917 20.772 79.4026 20.156 79.4026 19.372C79.4026 19.372 79.4026 18.196 79.4026 16.46C79.7358 16.628 80.0691 16.796 80.4023 16.964C81.6241 17.468 82.8458 17.748 84.1787 17.748C84.5119 17.748 84.9007 17.692 85.2339 17.692C86.2891 17.524 87.2887 17.244 88.1773 16.74C89.5102 16.012 90.6209 15.004 91.3984 13.772C92.1759 12.484 92.6202 11.084 92.6202 9.516C92.6202 9.18 92.5646 8.844 92.5646 8.508C92.5091 7.444 92.1759 6.492 91.676 5.596ZM53.1342 2.348C51.8013 1.564 50.4129 1.228 48.969 1.228C48.6358 1.228 48.247 1.284 47.9138 1.284C47.1363 1.396 46.5809 2.068 46.692 2.852C46.8031 3.636 47.4695 4.14 48.3026 4.028C48.5247 3.972 48.8024 3.972 49.0245 3.972C49.9686 3.972 50.9127 4.196 51.7458 4.7C52.6344 5.204 53.3008 5.876 53.8006 6.716C54.3004 7.556 54.5226 8.452 54.5226 9.404C54.5226 10.356 54.3004 11.252 53.8006 12.092C53.3008 12.988 52.5788 13.66 51.7458 14.108C50.9127 14.612 49.9686 14.836 49.0245 14.836C48.0804 14.836 47.1363 14.612 46.3033 14.108C45.4147 13.604 44.7483 12.932 44.2484 12.092C43.7486 11.252 43.5265 10.356 43.5265 9.404C43.5265 8.452 43.7486 7.556 44.2484 6.716C44.3595 6.492 44.4706 6.324 44.6372 6.156C45.137 5.54 44.9704 4.7 44.3595 4.196C43.7486 3.692 42.8045 3.86 42.3602 4.476C42.1381 4.756 41.9159 5.036 41.7493 5.316C40.9718 6.604 40.6386 8.004 40.6386 9.46C40.6386 10.916 41.0274 12.26 41.6938 13.548C42.4158 14.78 43.4709 15.9 44.8038 16.628C46.1367 17.412 47.5251 17.748 48.969 17.748C50.4129 17.748 51.8013 17.356 53.0786 16.684C54.3004 16.012 55.4667 14.948 56.1886 13.604C56.9661 12.316 57.2994 10.916 57.2994 9.46C57.2994 8.004 56.9106 6.66 56.2442 5.372C55.5222 4.14 54.467 3.076 53.1342 2.348ZM9.26086 5.316C9.59408 5.988 10.4271 6.324 11.1491 5.988C11.871 5.652 12.2043 4.868 11.871 4.14L10.5937 1.34C10.3716 0.836 9.81622 0.5 9.26086 0.5C9.03872 0.5 8.87211 0.556002 8.64996 0.668002C7.928 1.004 7.59479 1.788 7.928 2.516L9.26086 5.316ZM23.0893 3.188C23.5891 2.572 23.4225 1.732 22.8116 1.228C22.2007 0.724002 21.2566 0.892002 20.8123 1.508C20.4791 1.956 20.2014 2.404 19.8682 2.908C19.4239 3.636 19.0907 4.364 18.8686 5.092L15.6475 13.156L12.8152 8.228C12.593 7.78 12.0932 7.5 11.5934 7.5C11.0935 7.5 10.6493 7.78 10.3716 8.172L7.48371 13.1L2.76317 1.396C2.54102 0.836003 1.98566 0.5 1.4303 0.5H1.37477C1.20816 0.5 1.04155 0.556003 0.874946 0.612003C0.152981 0.892003 -0.180231 1.732 0.0974481 2.46L5.92871 16.908C6.15085 17.412 6.59514 17.748 7.1505 17.804C7.70586 17.86 8.20568 17.58 8.48336 17.132L11.5934 11.756L14.6478 17.076C14.9255 17.58 15.4253 17.86 15.9807 17.804C16.5361 17.748 16.9803 17.412 17.2025 16.908L21.5343 6.1C21.7564 5.54 22.0341 4.924 22.3673 4.364C22.5895 3.916 22.8116 3.524 23.0893 3.188ZM34.8629 2.348C33.53 1.564 32.1416 1.228 30.6977 1.228C30.3645 1.228 29.9757 1.284 29.6425 1.284C28.865 1.396 28.3097 2.068 28.4207 2.852C28.5318 3.636 29.1982 4.14 30.0313 4.028C30.2534 3.972 30.5311 3.972 30.7532 3.972C31.6973 3.972 32.6414 4.196 33.4745 4.7C34.3631 5.204 35.0295 5.876 35.5293 6.716C36.0291 7.556 36.2513 8.452 36.2513 9.404C36.2513 10.356 36.0291 11.252 35.5293 12.092C35.0295 12.988 34.3075 13.66 33.4745 14.108C32.6414 14.612 31.6973 14.836 30.7532 14.836C29.8091 14.836 28.865 14.612 28.032 14.108C27.1434 13.604 26.477 12.932 25.9771 12.092C25.4773 11.252 25.2552 10.356 25.2552 9.404C25.2552 8.452 25.4773 7.556 25.9771 6.716C26.0882 6.492 26.1993 6.324 26.3659 6.156C26.8657 5.54 26.6991 4.7 26.0882 4.196C25.4773 3.692 24.5332 3.86 24.0889 4.476C23.8668 4.756 23.6446 5.036 23.478 5.316C22.7005 6.604 22.3673 8.004 22.3673 9.46C22.3673 10.916 22.7561 12.26 23.4225 13.548C24.1445 14.78 25.1996 15.9 26.5325 16.628C27.8654 17.412 29.2538 17.748 30.6977 17.748C32.1416 17.748 33.53 17.356 34.8074 16.684C36.0291 16.012 37.1954 14.948 37.9174 13.604C38.6949 12.316 39.0281 10.916 39.0281 9.46C39.0281 8.004 38.6393 6.66 37.9729 5.372C37.3065 4.14 36.2513 3.076 34.8629 2.348ZM70.9056 13.1C70.4614 13.604 69.9615 13.996 69.3506 14.276C68.7397 14.612 68.1289 14.78 67.4069 14.836C67.1847 14.892 66.9071 14.892 66.6849 14.892C65.7963 14.892 64.9078 14.724 64.0192 14.332C63.2972 13.996 62.5753 13.604 61.9088 13.044C61.9088 11.14 61.9088 7.22 61.9088 7.108C62.2976 6.212 62.8529 5.484 63.5194 4.98C64.2413 4.42 65.0744 4.084 66.074 3.972C66.2962 3.916 66.5183 3.916 66.7405 3.916C68.1289 3.916 69.4062 4.42 70.4058 5.316C70.9056 5.708 71.2944 6.268 71.6276 6.828C71.9608 7.388 72.1274 8.06 72.2385 8.732C72.294 8.956 72.294 9.18 72.294 9.404C72.294 10.86 71.7942 12.148 70.9056 13.1ZM74.1823 5.596C73.4603 4.308 72.4051 3.188 71.1278 2.404C69.8505 1.62 68.4065 1.228 66.796 1.228C66.4628 1.228 66.1296 1.284 65.7963 1.284C64.2413 1.452 62.9085 2.068 61.7978 2.852C61.4645 3.076 61.1869 3.356 60.9647 3.636C60.7426 3.188 60.4649 2.796 60.2428 2.516C59.7985 1.956 59.4653 1.62 59.4097 1.564C58.7988 1.06 57.9103 1.06 57.4104 1.676C56.9106 2.236 56.9106 3.132 57.5215 3.636C57.577 3.692 57.9658 4.028 58.299 4.7C58.5212 5.036 58.6878 5.428 58.7988 5.876C58.9654 6.324 59.021 6.828 59.021 7.444C59.021 12.092 59.021 19.372 59.021 19.372C59.021 20.156 59.6319 20.772 60.4649 20.772C61.2424 20.772 61.9088 20.156 61.9088 19.372C61.9088 19.372 61.9088 18.196 61.9088 16.46C62.2421 16.628 62.5753 16.796 62.9085 16.964C64.1303 17.468 65.3521 17.748 66.6849 17.748C67.0181 17.748 67.4069 17.692 67.7401 17.692C68.7953 17.524 69.7949 17.244 70.6835 16.74C72.0164 16.012 73.1271 15.004 73.9046 13.772C74.6821 12.484 75.1264 11.084 75.1264 9.516C75.1264 9.18 75.0708 8.844 75.0708 8.508C75.0153 7.444 74.6265 6.492 74.1823 5.596Z" fill="#1C83FF"/>
</svg>
