<svg width="44" height="23" viewBox="0 0 44 23" fill="none" xmlns="http://www.w3.org/2000/svg">
<path d="M27.8609 19.5127C26.8333 18.881 26.5088 17.5329 27.1501 16.5083C27.7836 15.4838 29.1356 15.1602 30.1631 15.7996C30.6421 16.1001 31.1752 16.3312 31.7315 16.4852C32.2723 16.6393 32.844 16.724 33.4311 16.724C35.1385 16.724 36.6837 16.0307 37.8039 14.9214C38.9242 13.8045 39.6118 12.2638 39.6118 10.5613C39.6118 8.85888 38.9164 7.31821 37.8039 6.20122C36.6837 5.08423 35.1385 4.39863 33.4311 4.39863C32.1718 4.39863 30.9743 4.7761 29.97 5.45399C28.9656 6.13189 28.1622 7.09481 27.6909 8.25032C27.6832 8.26573 27.6754 8.28884 27.6677 8.30424L27.1501 9.68315C27.1269 9.76788 27.096 9.85262 27.0574 9.92966L22.6769 21.5772C22.4992 22.0471 22.167 22.4553 21.6957 22.7173C20.645 23.3104 19.3084 22.9407 18.7135 21.8853L15.1365 15.5762L11.4204 21.9007C11.1809 22.309 10.8101 22.6402 10.3388 22.8251C9.21082 23.2719 7.9438 22.7173 7.4957 21.6003L0.156212 3.21231C-0.291884 2.08762 0.256647 0.824262 1.38461 0.377466C2.51257 -0.0693297 3.7796 0.485313 4.2277 1.6023L9.90614 15.8304L13.29 10.076C13.9004 9.03606 15.2447 8.68171 16.2876 9.29798C16.6662 9.52138 16.9521 9.83722 17.1375 10.1993L20.2278 15.6456L22.955 8.38128C22.9936 8.22721 23.0322 8.07314 23.0477 7.92678C23.0709 7.78041 23.0786 7.61094 23.0786 7.41835C23.0786 6.77127 22.9086 6.1473 22.6073 5.61576C22.2983 5.06882 21.8579 4.60662 21.3094 4.27538C20.2664 3.65911 19.9342 2.31101 20.5523 1.27876C21.1781 0.238805 22.5223 -0.0924403 23.5576 0.52383C24.5928 1.1401 25.4504 1.97207 26.0994 2.93499C26.5397 2.51901 27.011 2.13384 27.5055 1.80259C29.2206 0.647084 31.2679 0 33.4234 0C36.3438 0 38.9937 1.17862 40.902 3.08906C42.818 4.99949 44 7.63405 44 10.5459C44 13.4578 42.818 16.1001 40.902 18.0028C38.986 19.9132 36.3438 21.0919 33.4234 21.0919C32.4422 21.0919 31.4688 20.9532 30.5262 20.6836C29.6069 20.4294 28.7107 20.0365 27.8609 19.5127ZM10.501 3.38178C9.96022 2.30331 10.4006 0.993737 11.4822 0.4545C12.5638 -0.0847365 13.8772 0.354356 14.418 1.43283L15.8859 4.36011C16.4267 5.43859 15.9863 6.74816 14.9047 7.2951C13.8231 7.83434 12.5097 7.39524 11.9689 6.31677L10.501 3.38178Z" fill="#1C83FF"/>
</svg>
