<svg width="88" height="88" viewBox="0 0 88 88" fill="none" xmlns="http://www.w3.org/2000/svg">
<path d="M32.9646 71.1034C31.6086 71.1034 30.4865 70.7411 29.5981 70.0163C28.7155 69.2858 28.2538 68.3477 28.2129 67.2021H30.6589C30.7349 67.7398 30.9862 68.1753 31.4128 68.5084C31.8454 68.8416 32.3684 69.0081 32.9821 69.0081C33.6718 69.0081 34.2329 68.7919 34.6654 68.3594C35.1038 67.921 35.3229 67.357 35.3229 66.6673C35.3229 65.966 35.1067 65.3932 34.6742 64.949C34.2417 64.5048 33.6835 64.2827 32.9997 64.2827C32.5204 64.2827 32.085 64.3879 31.6934 64.5983C31.3076 64.8029 31.0037 65.0864 30.7816 65.4487H28.4145L29.037 58.1721H37.0851V60.2762H31.1148L30.8255 63.7392H30.8781C31.1411 63.3067 31.5151 62.9677 32.0002 62.7222C32.4912 62.4767 33.0552 62.354 33.6923 62.354C34.9021 62.354 35.8957 62.7543 36.673 63.5551C37.4562 64.3499 37.8478 65.364 37.8478 66.5972C37.8478 67.9356 37.3949 69.0227 36.4889 69.8585C35.5889 70.6885 34.4141 71.1034 32.9646 71.1034Z" fill="white"/>
<path d="M48.0175 69.3237C47.1116 70.5102 45.8638 71.1034 44.274 71.1034C42.6843 71.1034 41.4335 70.5131 40.5218 69.3325C39.61 68.146 39.1541 66.5271 39.1541 64.4756C39.1541 62.4358 39.61 60.8285 40.5218 59.6537C41.4394 58.4731 42.6901 57.8828 44.274 57.8828C45.8579 57.8828 47.1058 58.4702 48.0175 59.645C48.9293 60.8198 49.3852 62.427 49.3852 64.4668C49.3852 66.5125 48.9293 68.1314 48.0175 69.3237ZM42.4856 67.7983C42.9181 68.5873 43.5142 68.9818 44.274 68.9818C45.0338 68.9818 45.6271 68.5902 46.0537 67.8071C46.4804 67.018 46.6937 65.9075 46.6937 64.4756C46.6937 63.0553 46.4775 61.9565 46.045 61.1792C45.6183 60.396 45.028 60.0044 44.274 60.0044C43.5201 60.0044 42.9268 60.396 42.4943 61.1792C42.0618 61.9624 41.8456 63.0612 41.8456 64.4756C41.8456 65.9017 42.0589 67.0093 42.4856 67.7983Z" fill="white"/>
<path d="M59.7127 69.3237C58.8068 70.5102 57.559 71.1034 55.9692 71.1034C54.3795 71.1034 53.1287 70.5131 52.2169 69.3325C51.3052 68.146 50.8493 66.5271 50.8493 64.4756C50.8493 62.4358 51.3052 60.8285 52.2169 59.6537C53.1345 58.4731 54.3853 57.8828 55.9692 57.8828C57.5531 57.8828 58.8009 58.4702 59.7127 59.645C60.6245 60.8198 61.0804 62.427 61.0804 64.4668C61.0804 66.5125 60.6245 68.1314 59.7127 69.3237ZM54.1807 67.7983C54.6132 68.5873 55.2094 68.9818 55.9692 68.9818C56.729 68.9818 57.3222 68.5902 57.7489 67.8071C58.1756 67.018 58.3889 65.9075 58.3889 64.4756C58.3889 63.0553 58.1726 61.9565 57.7401 61.1792C57.3135 60.396 56.7232 60.0044 55.9692 60.0044C55.2152 60.0044 54.622 60.396 54.1895 61.1792C53.757 61.9624 53.5407 63.0612 53.5407 64.4756C53.5407 65.9017 53.7541 67.0093 54.1807 67.7983Z" fill="white"/>
<circle cx="44.647" cy="26.9302" r="10.4106" stroke="#9A7EE9" stroke-width="3" stroke-linecap="round" stroke-linejoin="round"/>
<path d="M22.4689 47.7747C19.9342 43.8242 18.4165 39.1507 18.295 34.1154C17.9417 19.4765 29.5224 7.32297 44.1613 6.96967C58.8001 6.61638 70.9537 18.1971 71.307 32.836C71.4198 37.512 70.315 41.9345 68.2818 45.7997" stroke="white" stroke-width="3" stroke-linejoin="round"/>
<path d="M57.5618 50.0631C57.5618 46.4971 52.506 42.3398 45.374 42.3398C38.2419 42.3398 31.7344 46.4971 31.7344 50.0631V50.8352" stroke="#9A7EE9" stroke-width="3" stroke-linejoin="round"/>
<path d="M21.7236 84.4102L21.7236 69.3868" stroke="white" stroke-width="3"/>
<path d="M29.2334 76.8945L14.21 76.8945" stroke="white" stroke-width="3"/>
<path d="M21.7227 65.5374L21.7227 57.3956C21.7227 53.5922 24.8059 50.509 28.6092 50.509L61.9749 50.509C65.7782 50.509 68.8615 53.5922 68.8615 57.3956L68.8615 70.008C68.8615 73.8113 65.7782 76.8945 61.9749 76.8945L32.3973 76.8945" stroke="white" stroke-width="3" stroke-linejoin="round"/>
</svg>
