<svg width="88" height="86" viewBox="0 0 88 86" fill="none" xmlns="http://www.w3.org/2000/svg">
<path d="M40.3387 53H37.8226L50.2235 32.0323H52.7096L40.3387 53ZM39.2004 31.6429C40.6981 31.6429 41.9362 32.1322 42.9147 33.1106C43.8932 34.0891 44.3825 35.2973 44.3825 36.7351C44.3825 38.1728 43.8932 39.381 42.9147 40.3595C41.9362 41.318 40.6981 41.7973 39.2004 41.7973C37.7427 41.7973 36.5146 41.318 35.5161 40.3595C34.5576 39.361 34.0783 38.1529 34.0783 36.7351C34.0783 35.3172 34.5576 34.1091 35.5161 33.1106C36.4946 32.1322 37.7227 31.6429 39.2004 31.6429ZM39.2004 39.6106C40.0192 39.6106 40.6882 39.341 41.2074 38.8019C41.7465 38.2427 42.0161 37.5538 42.0161 36.7351C42.0161 35.8964 41.7565 35.2074 41.2373 34.6682C40.7181 34.1291 40.0392 33.8595 39.2004 33.8595C38.4017 33.8595 37.7427 34.1391 37.2235 34.6982C36.7043 35.2374 36.4447 35.9163 36.4447 36.7351C36.4447 37.5538 36.7043 38.2427 37.2235 38.8019C37.7427 39.341 38.4017 39.6106 39.2004 39.6106ZM51.2718 43.235C52.7695 43.235 54.0076 43.7243 54.9861 44.7028C55.9646 45.6813 56.4539 46.8794 56.4539 48.2972C56.4539 49.735 55.9646 50.9432 54.9861 51.9217C54.0076 52.9002 52.7695 53.3894 51.2718 53.3894C49.7941 53.3894 48.566 52.9002 47.5875 51.9217C46.629 50.9432 46.1497 49.735 46.1497 48.2972C46.1497 46.8794 46.629 45.6813 47.5875 44.7028C48.566 43.7243 49.7941 43.235 51.2718 43.235ZM51.2718 51.1728C52.1106 51.1728 52.7895 50.9032 53.3087 50.3641C53.8279 49.8249 54.0875 49.136 54.0875 48.2972C54.0875 47.4785 53.8179 46.7996 53.2788 46.2604C52.7596 45.7012 52.0906 45.4217 51.2718 45.4217C50.4731 45.4217 49.8141 45.7012 49.2949 46.2604C48.7757 46.7996 48.5161 47.4785 48.5161 48.2972C48.5161 49.116 48.7757 49.8049 49.2949 50.3641C49.8141 50.9032 50.4731 51.1728 51.2718 51.1728Z" fill="#1C4F94"/>
<path d="M40.3387 53H37.8226L50.2235 32.0323H52.7096L40.3387 53ZM39.2004 31.6429C40.6981 31.6429 41.9362 32.1322 42.9147 33.1106C43.8932 34.0891 44.3825 35.2973 44.3825 36.7351C44.3825 38.1728 43.8932 39.381 42.9147 40.3595C41.9362 41.318 40.6981 41.7973 39.2004 41.7973C37.7427 41.7973 36.5146 41.318 35.5161 40.3595C34.5576 39.361 34.0783 38.1529 34.0783 36.7351C34.0783 35.3172 34.5576 34.1091 35.5161 33.1106C36.4946 32.1322 37.7227 31.6429 39.2004 31.6429ZM39.2004 39.6106C40.0192 39.6106 40.6882 39.341 41.2074 38.8019C41.7465 38.2427 42.0161 37.5538 42.0161 36.7351C42.0161 35.8964 41.7565 35.2074 41.2373 34.6682C40.7181 34.1291 40.0392 33.8595 39.2004 33.8595C38.4017 33.8595 37.7427 34.1391 37.2235 34.6982C36.7043 35.2374 36.4447 35.9163 36.4447 36.7351C36.4447 37.5538 36.7043 38.2427 37.2235 38.8019C37.7427 39.341 38.4017 39.6106 39.2004 39.6106ZM51.2718 43.235C52.7695 43.235 54.0076 43.7243 54.9861 44.7028C55.9646 45.6813 56.4539 46.8794 56.4539 48.2972C56.4539 49.735 55.9646 50.9432 54.9861 51.9217C54.0076 52.9002 52.7695 53.3894 51.2718 53.3894C49.7941 53.3894 48.566 52.9002 47.5875 51.9217C46.629 50.9432 46.1497 49.735 46.1497 48.2972C46.1497 46.8794 46.629 45.6813 47.5875 44.7028C48.566 43.7243 49.7941 43.235 51.2718 43.235ZM51.2718 51.1728C52.1106 51.1728 52.7895 50.9032 53.3087 50.3641C53.8279 49.8249 54.0875 49.136 54.0875 48.2972C54.0875 47.4785 53.8179 46.7996 53.2788 46.2604C52.7596 45.7012 52.0906 45.4217 51.2718 45.4217C50.4731 45.4217 49.8141 45.7012 49.2949 46.2604C48.7757 46.7996 48.5161 47.4785 48.5161 48.2972C48.5161 49.116 48.7757 49.8049 49.2949 50.3641C49.8141 50.9032 50.4731 51.1728 51.2718 51.1728Z" fill="#9A7EE9"/>
<path d="M75.2239 41.9078C74.6931 29.3254 66.2297 17.9373 53.4584 14.2788C37.4969 9.70656 20.8511 18.9393 16.2788 34.9008C11.7065 50.8622 20.9393 67.5081 36.9007 72.0803C49.1295 75.5834 61.76 70.9831 69.0549 61.4619" stroke="white" stroke-width="3"/>
<path d="M71 43.5L75.7334 47.6276L79.6496 42.9987L71 43.5Z" fill="white"/>
<path d="M79.6499 43.0002L79.6496 42.9987M79.6496 42.9987L75.7334 47.6276L71 43.5L79.6496 42.9987Z" stroke="white" stroke-width="3" stroke-linecap="round" stroke-linejoin="round"/>
</svg>
