<svg width="88" height="86" viewBox="0 0 88 86" fill="none" xmlns="http://www.w3.org/2000/svg">
<path d="M56.5391 32H54.9189L60.6782 22.4692H62.2984L56.5391 32ZM53.925 23.0547C54.397 22.6008 54.987 22.3739 55.695 22.3739C56.403 22.3739 56.993 22.6008 57.465 23.0547C57.9279 23.4995 58.1594 24.0622 58.1594 24.743C58.1594 25.4238 57.9279 25.9865 57.465 26.4313C56.993 26.8852 56.403 27.1121 55.695 27.1121C54.987 27.1121 54.397 26.8852 53.925 26.4313C53.4621 25.9865 53.2306 25.4238 53.2306 24.743C53.2306 24.0622 53.4621 23.4995 53.925 23.0547ZM55.0687 25.4102C55.2321 25.5826 55.4408 25.6688 55.695 25.6688C55.9491 25.6688 56.1579 25.5826 56.3213 25.4102C56.4847 25.2286 56.5664 25.0062 56.5664 24.743C56.5664 24.4798 56.4847 24.2619 56.3213 24.0895C56.1579 23.9079 55.9491 23.8172 55.695 23.8172C55.4408 23.8172 55.2321 23.9079 55.0687 24.0895C54.9053 24.2619 54.8236 24.4798 54.8236 24.743C54.8236 25.0062 54.9053 25.2286 55.0687 25.4102ZM59.7388 28.0379C60.2108 27.5841 60.8008 27.3572 61.5088 27.3572C62.2168 27.3572 62.8068 27.5841 63.2788 28.0379C63.7417 28.4918 63.9731 29.0545 63.9731 29.7262C63.9731 30.3979 63.7417 30.9607 63.2788 31.4145C62.8068 31.8684 62.2168 32.0953 61.5088 32.0953C60.8008 32.0953 60.2108 31.8684 59.7388 31.4145C59.2758 30.9698 59.0444 30.407 59.0444 29.7262C59.0444 29.0455 59.2758 28.4827 59.7388 28.0379ZM60.8824 30.3934C61.0458 30.5658 61.2546 30.6521 61.5088 30.6521C61.7629 30.6521 61.9717 30.5658 62.1351 30.3934C62.2984 30.2118 62.3801 29.9895 62.3801 29.7262C62.3801 29.463 62.2984 29.2452 62.1351 29.0727C61.9717 28.8912 61.7629 28.8004 61.5088 28.8004C61.2546 28.8004 61.0458 28.8912 60.8824 29.0727C60.7191 29.2452 60.6374 29.463 60.6374 29.7262C60.6374 29.9895 60.7191 30.2118 60.8824 30.3934Z" fill="#1C4F94"/>
<path d="M56.5391 32H54.9189L60.6782 22.4692H62.2984L56.5391 32ZM53.925 23.0547C54.397 22.6008 54.987 22.3739 55.695 22.3739C56.403 22.3739 56.993 22.6008 57.465 23.0547C57.9279 23.4995 58.1594 24.0622 58.1594 24.743C58.1594 25.4238 57.9279 25.9865 57.465 26.4313C56.993 26.8852 56.403 27.1121 55.695 27.1121C54.987 27.1121 54.397 26.8852 53.925 26.4313C53.4621 25.9865 53.2306 25.4238 53.2306 24.743C53.2306 24.0622 53.4621 23.4995 53.925 23.0547ZM55.0687 25.4102C55.2321 25.5826 55.4408 25.6688 55.695 25.6688C55.9491 25.6688 56.1579 25.5826 56.3213 25.4102C56.4847 25.2286 56.5664 25.0062 56.5664 24.743C56.5664 24.4798 56.4847 24.2619 56.3213 24.0895C56.1579 23.9079 55.9491 23.8172 55.695 23.8172C55.4408 23.8172 55.2321 23.9079 55.0687 24.0895C54.9053 24.2619 54.8236 24.4798 54.8236 24.743C54.8236 25.0062 54.9053 25.2286 55.0687 25.4102ZM59.7388 28.0379C60.2108 27.5841 60.8008 27.3572 61.5088 27.3572C62.2168 27.3572 62.8068 27.5841 63.2788 28.0379C63.7417 28.4918 63.9731 29.0545 63.9731 29.7262C63.9731 30.3979 63.7417 30.9607 63.2788 31.4145C62.8068 31.8684 62.2168 32.0953 61.5088 32.0953C60.8008 32.0953 60.2108 31.8684 59.7388 31.4145C59.2758 30.9698 59.0444 30.407 59.0444 29.7262C59.0444 29.0455 59.2758 28.4827 59.7388 28.0379ZM60.8824 30.3934C61.0458 30.5658 61.2546 30.6521 61.5088 30.6521C61.7629 30.6521 61.9717 30.5658 62.1351 30.3934C62.2984 30.2118 62.3801 29.9895 62.3801 29.7262C62.3801 29.463 62.2984 29.2452 62.1351 29.0727C61.9717 28.8912 61.7629 28.8004 61.5088 28.8004C61.2546 28.8004 61.0458 28.8912 60.8824 29.0727C60.7191 29.2452 60.6374 29.463 60.6374 29.7262C60.6374 29.9895 60.7191 30.2118 60.8824 30.3934Z" fill="#9A7EE9"/>
<path d="M66.099 35.4675C70.4972 31.2881 70.6746 24.3345 66.4952 19.9363C62.3158 15.5381 55.3623 15.3607 50.9641 19.5401C46.5659 23.7195 46.3885 30.673 50.5679 35.0713" stroke="#9A7EE9" stroke-width="2.6787"/>
<path d="M21 41.951L21.0008 37.0239C21.0013 34.2743 22.6115 31.7796 25.1169 30.6468L36.5 25.5" stroke="white" stroke-width="3" stroke-linejoin="bevel"/>
<path d="M35.0881 34.9531H67.2803C70.594 34.9531 73.2803 37.6394 73.2803 40.9531V67.8603C73.2803 71.174 70.594 73.8603 67.2803 73.8603H27C23.6863 73.8603 21 71.174 21 67.8603V40.9531C21 37.6394 23.6863 34.9531 27 34.9531H35.4993" stroke="white" stroke-width="3" stroke-linecap="round"/>
<path d="M73.2803 59L69.7805 59C68.3997 59 67.2804 57.8806 67.2805 56.4998L67.2808 53.4998C67.2809 52.1192 68.4001 51 69.7808 51L73.2803 51" stroke="white" stroke-width="3"/>
<path d="M47.996 60.7256C47.2954 60.3137 47.0742 59.4345 47.5114 58.7663C47.9434 58.0981 48.8652 57.8871 49.5658 58.3041C49.8924 58.5 50.2558 58.6508 50.6351 58.7512C51.0038 58.8517 51.3936 58.907 51.794 58.907C52.9581 58.907 54.0116 58.4548 54.7754 57.7314C55.5392 57.0029 56.008 55.9981 56.008 54.8878C56.008 53.7775 55.5339 52.7727 54.7754 52.0443C54.0116 51.3158 52.9581 50.8687 51.794 50.8687C50.9353 50.8687 50.1189 51.1148 49.4341 51.557C48.7493 51.9991 48.2015 52.6271 47.8801 53.3806C47.8749 53.3907 47.8696 53.4058 47.8643 53.4158L47.5114 54.3151C47.4956 54.3704 47.4745 54.4256 47.4482 54.4759L44.4615 62.0721C44.3403 62.3785 44.1138 62.6448 43.7925 62.8156C43.0761 63.2025 42.1648 62.9613 41.7592 62.273L39.3203 58.1584L36.7866 62.2831C36.6233 62.5493 36.3705 62.7654 36.0492 62.8859C35.2801 63.1773 34.4162 62.8156 34.1107 62.0871L29.1065 50.095C28.801 49.3615 29.175 48.5376 29.9441 48.2462C30.7131 47.9548 31.577 48.3165 31.8825 49.045L35.7542 58.3242L38.0614 54.5713C38.4775 53.8931 39.3941 53.662 40.1052 54.0639C40.3633 54.2096 40.5582 54.4156 40.6846 54.6517L42.7917 58.2036L44.6511 53.4661C44.6775 53.3656 44.7038 53.2651 44.7143 53.1696C44.7301 53.0742 44.7354 52.9637 44.7354 52.8381C44.7354 52.416 44.6195 52.0091 44.4141 51.6625C44.2034 51.3058 43.9031 51.0043 43.5291 50.7883C42.818 50.3864 42.5915 49.5072 43.0129 48.834C43.4396 48.1557 44.3561 47.9397 45.062 48.3416C45.7679 48.7435 46.3526 49.2861 46.795 49.9141C47.0953 49.6428 47.4166 49.3916 47.7537 49.1756C48.9231 48.422 50.319 48 51.7887 48C53.7798 48 55.5866 48.7687 56.8877 50.0146C58.1941 51.2605 59 52.9787 59 54.8778C59 56.7768 58.1941 58.5 56.8877 59.741C55.5813 60.9869 53.7798 61.7556 51.7887 61.7556C51.1197 61.7556 50.456 61.6651 49.8133 61.4893C49.1865 61.3235 48.5755 61.0673 47.996 60.7256ZM36.1598 50.2055C35.7911 49.5022 36.0913 48.6481 36.8288 48.2964C37.5662 47.9447 38.4617 48.2311 38.8305 48.9345L39.8313 50.8436C40.2 51.5469 39.8998 52.401 39.1623 52.7577C38.4249 53.1094 37.5294 52.823 37.1606 52.1196L36.1598 50.2055Z" fill="white"/>
<path d="M41.8102 22H40.514L45.1215 14.3754H46.4177L41.8102 22ZM39.7189 14.8438C40.0965 14.4807 40.5685 14.2991 41.1349 14.2991C41.7013 14.2991 42.1733 14.4807 42.5509 14.8438C42.9212 15.1996 43.1064 15.6498 43.1064 16.1944C43.1064 16.739 42.9212 17.1892 42.5509 17.545C42.1733 17.9081 41.7013 18.0897 41.1349 18.0897C40.5685 18.0897 40.0965 17.9081 39.7189 17.545C39.3486 17.1892 39.1634 16.739 39.1634 16.1944C39.1634 15.6498 39.3486 15.1996 39.7189 14.8438ZM40.6338 16.7281C40.7646 16.8661 40.9316 16.9351 41.1349 16.9351C41.3382 16.9351 41.5052 16.8661 41.6359 16.7281C41.7666 16.5829 41.832 16.405 41.832 16.1944C41.832 15.9838 41.7666 15.8095 41.6359 15.6716C41.5052 15.5263 41.3382 15.4537 41.1349 15.4537C40.9316 15.4537 40.7646 15.5263 40.6338 15.6716C40.5031 15.8095 40.4378 15.9838 40.4378 16.1944C40.4378 16.405 40.5031 16.5829 40.6338 16.7281ZM44.3699 18.8303C44.7475 18.4673 45.2195 18.2857 45.7859 18.2857C46.3523 18.2857 46.8243 18.4673 47.2019 18.8303C47.5722 19.1934 47.7574 19.6436 47.7574 20.181C47.7574 20.7183 47.5722 21.1686 47.2019 21.5316C46.8243 21.8947 46.3523 22.0762 45.7859 22.0762C45.2195 22.0762 44.7475 21.8947 44.3699 21.5316C43.9996 21.1758 43.8144 20.7256 43.8144 20.181C43.8144 19.6364 43.9996 19.1862 44.3699 18.8303ZM45.2849 20.7147C45.4156 20.8527 45.5826 20.9217 45.7859 20.9217C45.9892 20.9217 46.1562 20.8527 46.287 20.7147C46.4177 20.5695 46.483 20.3916 46.483 20.181C46.483 19.9704 46.4177 19.7961 46.287 19.6582C46.1562 19.5129 45.9892 19.4403 45.7859 19.4403C45.5826 19.4403 45.4156 19.5129 45.2849 19.6582C45.1542 19.7961 45.0888 19.9704 45.0888 20.181C45.0888 20.3916 45.1542 20.5695 45.2849 20.7147Z" fill="#1C4F94"/>
<path d="M41.8102 22H40.514L45.1215 14.3754H46.4177L41.8102 22ZM39.7189 14.8438C40.0965 14.4807 40.5685 14.2991 41.1349 14.2991C41.7013 14.2991 42.1733 14.4807 42.5509 14.8438C42.9212 15.1996 43.1064 15.6498 43.1064 16.1944C43.1064 16.739 42.9212 17.1892 42.5509 17.545C42.1733 17.9081 41.7013 18.0897 41.1349 18.0897C40.5685 18.0897 40.0965 17.9081 39.7189 17.545C39.3486 17.1892 39.1634 16.739 39.1634 16.1944C39.1634 15.6498 39.3486 15.1996 39.7189 14.8438ZM40.6338 16.7281C40.7646 16.8661 40.9316 16.9351 41.1349 16.9351C41.3382 16.9351 41.5052 16.8661 41.6359 16.7281C41.7666 16.5829 41.832 16.405 41.832 16.1944C41.832 15.9838 41.7666 15.8095 41.6359 15.6716C41.5052 15.5263 41.3382 15.4537 41.1349 15.4537C40.9316 15.4537 40.7646 15.5263 40.6338 15.6716C40.5031 15.8095 40.4378 15.9838 40.4378 16.1944C40.4378 16.405 40.5031 16.5829 40.6338 16.7281ZM44.3699 18.8303C44.7475 18.4673 45.2195 18.2857 45.7859 18.2857C46.3523 18.2857 46.8243 18.4673 47.2019 18.8303C47.5722 19.1934 47.7574 19.6436 47.7574 20.181C47.7574 20.7183 47.5722 21.1686 47.2019 21.5316C46.8243 21.8947 46.3523 22.0762 45.7859 22.0762C45.2195 22.0762 44.7475 21.8947 44.3699 21.5316C43.9996 21.1758 43.8144 20.7256 43.8144 20.181C43.8144 19.6364 43.9996 19.1862 44.3699 18.8303ZM45.2849 20.7147C45.4156 20.8527 45.5826 20.9217 45.7859 20.9217C45.9892 20.9217 46.1562 20.8527 46.287 20.7147C46.4177 20.5695 46.483 20.3916 46.483 20.181C46.483 19.9704 46.4177 19.7961 46.287 19.6582C46.1562 19.5129 45.9892 19.4403 45.7859 19.4403C45.5826 19.4403 45.4156 19.5129 45.2849 19.6582C45.1542 19.7961 45.0888 19.9704 45.0888 20.181C45.0888 20.3916 45.1542 20.5695 45.2849 20.7147Z" fill="#9A7EE9"/>
<path d="M52.4768 18.8807C52.58 16.0954 51.3833 13.3031 49.0101 11.4684C45.1035 8.44829 39.4882 9.16693 36.4681 13.0735C33.448 16.9801 34.1666 22.5954 38.0732 25.6155C40.7701 27.7004 44.2813 28.0035 47.1908 26.7061" stroke="#9A7EE9" stroke-width="2.6787"/>
</svg>
