<svg width="88" height="88" viewBox="0 0 88 88" fill="none" xmlns="http://www.w3.org/2000/svg">
<path d="M47.2637 40.6901C47.2637 38.4283 48.078 36.5735 49.7065 35.1259C51.3351 33.667 53.416 32.9375 55.9494 32.9375C58.3809 32.9375 60.3827 33.5991 61.9547 34.9223C63.538 36.2455 64.3297 37.9024 64.3297 39.8928C64.3297 41.2613 63.9451 42.5562 63.1761 43.7776C62.4184 44.9877 61.1574 46.4806 59.3931 48.2562L53.3369 54.2446V54.3294H64.7029V57.9088H47.5012V54.9571L56.5092 45.9999C57.9002 44.575 58.8389 43.461 59.3252 42.658C59.8115 41.855 60.0547 40.9955 60.0547 40.0794C60.0547 39.0616 59.6475 38.2021 58.8333 37.5009C58.0303 36.7997 57.0238 36.4491 55.8136 36.4491C54.5357 36.4491 53.4726 36.8506 52.6244 37.6536C51.7875 38.4565 51.369 39.4631 51.369 40.6732V40.741H47.2637V40.6901Z" fill="#9A7EE9"/>
<path d="M39.827 41.5117L27.1631 54.1756" stroke="#9A7EE9" stroke-width="3.26626" stroke-linejoin="round"/>
<path d="M39.8291 54.1796L26.4987 41.5156" stroke="#9A7EE9" stroke-width="3.26626" stroke-linejoin="round"/>
<path d="M19.9233 31.9653C21.019 26.3258 25.9581 22.2539 31.7031 22.2539H69.6062C74.6367 22.2539 78.4188 26.8415 77.4594 31.7796L71.3868 63.0365C70.2911 68.6761 65.352 72.7479 59.607 72.7479H21.7038C16.6734 72.7479 12.8913 68.1603 13.8507 63.2222L19.9233 31.9653Z" stroke="white" stroke-width="4" stroke-linecap="round" stroke-linejoin="round"/>
</svg>
