<svg width="70" height="67" viewBox="0 0 70 67" fill="none" xmlns="http://www.w3.org/2000/svg">
<rect x="12.1729" y="7" width="57.8271" height="40.5391" rx="6.71053" fill="#4060F6"/>
<rect x="7" y="15" width="57.8271" height="40.5391" rx="7.02368" fill="#40CAF6"/>
<rect x="7" y="15" width="57.8271" height="40.5391" rx="7.02368" fill="url(#paint0_linear)"/>
<rect width="57.8266" height="40.5394" rx="7.02368" transform="matrix(1.00001 -4.25611e-10 6.97982e-05 0.999992 0.311523 24.5938)" fill="url(#paint1_linear)"/>
<path d="M41.4116 52.3295L38.4838 58.6264L36.5477 58.6372L35.0547 53.63C34.9688 53.318 34.884 53.2143 34.6139 53.0818C34.175 52.8759 33.433 52.6717 32.7926 52.5562L32.8421 52.3773L35.9567 52.3599C36.3608 52.3577 36.7157 52.5938 36.8021 52.9952L37.597 56.6222L39.4923 52.3402L41.4116 52.3295ZM49.062 56.5284C49.0528 54.8764 46.4595 54.7867 46.4722 54.0574C46.4709 53.8341 46.7221 53.5946 47.2437 53.5322C47.5129 53.5009 48.2367 53.4671 49.0636 53.8048L49.3759 52.4636C48.9374 52.3321 48.3642 52.1865 47.6571 52.1904C45.8388 52.2006 44.564 53.056 44.571 54.2912C44.5593 55.1992 45.4881 55.7 46.18 55.9938C46.9057 56.3023 47.1425 56.4944 47.144 56.7623C47.1464 57.179 46.575 57.3757 46.0531 57.3786C45.1272 57.3987 44.5871 57.1635 44.1652 56.9873L43.8362 58.3584C44.275 58.5345 45.0671 58.6789 45.8752 58.6744C47.7946 58.6786 49.0525 57.8232 49.062 56.5284ZM53.8717 58.5404L55.5722 58.5309L54.0553 52.2589L52.4895 52.2676C52.136 52.2696 51.8339 52.4499 51.7008 52.7334L48.9725 58.5678L50.9086 58.557L51.2906 57.6172L53.6476 57.6041L53.8717 58.5404ZM51.8053 56.3344L52.7516 53.9628L53.3205 56.326L51.8053 56.3344ZM44.0379 52.3148L42.5581 58.6036L40.7229 58.6139L42.2028 52.325L44.0379 52.3148Z" fill="white"/>
<rect x="8" y="32" width="16" height="16" rx="5.06947" fill="#1C4F94"/>
<rect x="8" y="32" width="16" height="16" rx="5.06947" fill="#FEFEFF"/>
<path d="M16 35L16 45" stroke="#1C4F94" stroke-width="2.23684"/>
<path d="M21 40L11 40" stroke="#1C4F94" stroke-width="2.23684"/>
<defs>
<linearGradient id="paint0_linear" x1="74.1331" y1="0.646485" x2="35.6163" y2="35.0462" gradientUnits="userSpaceOnUse">
<stop stop-color="white"/>
<stop offset="1" stop-color="white" stop-opacity="0"/>
</linearGradient>
<linearGradient id="paint1_linear" x1="76.2873" y1="46.0412" x2="-13.3088" y2="48.0435" gradientUnits="userSpaceOnUse">
<stop stop-color="#940ADE"/>
<stop offset="1" stop-color="#1C83FF"/>
</linearGradient>
</defs>
</svg>
