<svg width="70" height="48" viewBox="0 0 70 48" fill="none" xmlns="http://www.w3.org/2000/svg">
<rect x="2" y="0.5" width="66" height="47.3518" rx="7.10632" fill="url(#paint0_linear)"/>
<path d="M45.8461 33.8373L42.7781 40.5145H40.7734L39.2568 35.1822C39.1696 34.85 39.0825 34.7392 38.8036 34.5968C38.3503 34.3753 37.5833 34.1538 36.9209 34.0272L36.9732 33.8373H40.1981C40.6165 33.8373 40.9826 34.0905 41.0697 34.5177L41.8716 38.3784L43.8589 33.8373H45.8461ZM53.7429 38.3468C53.7429 36.5905 51.0583 36.4797 51.0758 35.7044C51.0758 35.4671 51.3372 35.2139 51.8776 35.1506C52.1565 35.119 52.9061 35.0873 53.7603 35.4512L54.0915 34.0272C53.6383 33.8848 53.0456 33.7266 52.3134 33.7266C50.4308 33.7266 49.1059 34.6285 49.1059 35.9417C49.0885 36.9069 50.0473 37.4449 50.762 37.7614C51.5116 38.0936 51.7556 38.2993 51.7556 38.5841C51.7556 39.0272 51.1629 39.2329 50.6225 39.2329C49.6638 39.2487 49.1059 38.9955 48.6701 38.8057L48.3215 40.2613C48.7747 40.4512 49.594 40.6094 50.4308 40.6094C52.418 40.6253 53.7254 39.7234 53.7429 38.3468ZM58.711 40.5145H60.4716L58.9376 33.8373H57.3164C56.9504 33.8373 56.6366 34.0272 56.4971 34.3278L53.6383 40.5145H55.643L56.0439 39.5177H58.4844L58.711 40.5145ZM56.5843 38.1569L57.5779 35.6411L58.1532 38.1569H56.5843ZM48.5655 33.8373L46.9966 40.5145H45.0965L46.6654 33.8373H48.5655Z" fill="white"/>
<path d="M36.6379 22.293C36.5465 22.293 36.4558 22.293 36.3644 22.293C35.8883 22.229 35.4879 21.9839 35.0724 21.7613C34.5756 21.4951 34.0417 21.49 33.5192 21.6864C33.2408 21.7911 32.9817 21.9504 32.7112 22.077C31.966 22.4254 31.2493 22.3148 30.604 21.8507C30.1864 21.5496 29.8038 21.1852 29.4505 20.8056C28.6039 19.8971 28.0514 18.8119 27.7716 17.5958C27.6453 17.0474 27.5689 16.483 27.5196 15.9214C27.4804 15.4719 27.5146 15.0159 27.5189 14.5628C27.5239 13.9853 27.5946 13.4179 27.7737 12.8673C28.0307 12.0818 28.5611 11.5297 29.2078 11.0613C30.1115 10.4082 31.1022 10.1783 32.1765 10.4242C32.6455 10.5318 33.0973 10.726 33.5478 10.905C33.8183 11.0126 34.0738 11.033 34.3401 10.9166C34.4186 10.8824 34.5014 10.8569 34.5806 10.8235C35.2587 10.5347 35.9519 10.3107 36.6971 10.2947C37.2146 10.2838 37.7243 10.3216 38.2225 10.4722C38.7307 10.6257 39.1041 10.9857 39.4831 11.3341C39.6408 11.4795 39.7772 11.6498 39.9306 11.817C39.8243 11.8803 39.7436 11.9232 39.6687 11.9749C38.5216 12.764 38.1104 13.8994 38.2146 15.2588C38.2682 15.9578 38.5237 16.5899 38.9691 17.131C39.3139 17.5493 39.7272 17.87 40.2519 18.0206C40.2519 18.0307 40.2519 18.0409 40.2519 18.0518C40.2362 18.0831 40.2183 18.1137 40.2062 18.1464C39.75 19.3683 39.0748 20.4448 38.1204 21.3234C37.6821 21.7256 37.2496 22.1562 36.6379 22.293Z" fill="#1C4F94"/>
<path d="M36.6379 22.293C36.5465 22.293 36.4558 22.293 36.3644 22.293C35.8883 22.229 35.4879 21.9839 35.0724 21.7613C34.5756 21.4951 34.0417 21.49 33.5192 21.6864C33.2408 21.7911 32.9817 21.9504 32.7112 22.077C31.966 22.4254 31.2493 22.3148 30.604 21.8507C30.1864 21.5496 29.8038 21.1852 29.4505 20.8056C28.6039 19.8971 28.0514 18.8119 27.7716 17.5958C27.6453 17.0474 27.5689 16.483 27.5196 15.9214C27.4804 15.4719 27.5146 15.0159 27.5189 14.5628C27.5239 13.9853 27.5946 13.4179 27.7737 12.8673C28.0307 12.0818 28.5611 11.5297 29.2078 11.0613C30.1115 10.4082 31.1022 10.1783 32.1765 10.4242C32.6455 10.5318 33.0973 10.726 33.5478 10.905C33.8183 11.0126 34.0738 11.033 34.3401 10.9166C34.4186 10.8824 34.5014 10.8569 34.5806 10.8235C35.2587 10.5347 35.9519 10.3107 36.6971 10.2947C37.2146 10.2838 37.7243 10.3216 38.2225 10.4722C38.7307 10.6257 39.1041 10.9857 39.4831 11.3341C39.6408 11.4795 39.7772 11.6498 39.9306 11.817C39.8243 11.8803 39.7436 11.9232 39.6687 11.9749C38.5216 12.764 38.1104 13.8994 38.2146 15.2588C38.2682 15.9578 38.5237 16.5899 38.9691 17.131C39.3139 17.5493 39.7272 17.87 40.2519 18.0206C40.2519 18.0307 40.2519 18.0409 40.2519 18.0518C40.2362 18.0831 40.2183 18.1137 40.2062 18.1464C39.75 19.3683 39.0748 20.4448 38.1204 21.3234C37.6821 21.7256 37.2496 22.1562 36.6379 22.293Z" fill="#FEFEFF"/>
<path d="M36.3266 6.29297C36.409 8.66327 34.5766 9.98524 32.959 9.97855C33.0058 9.69818 33.0367 9.4178 33.1007 9.14485C33.4103 7.83427 34.1345 6.88387 35.4253 6.4593C35.7119 6.36474 36.0222 6.34663 36.3266 6.29297Z" fill="#1C4F94"/>
<path d="M36.3266 6.29297C36.409 8.66327 34.5766 9.98524 32.959 9.97855C33.0058 9.69818 33.0367 9.4178 33.1007 9.14485C33.4103 7.83427 34.1345 6.88387 35.4253 6.4593C35.7119 6.36474 36.0222 6.34663 36.3266 6.29297Z" fill="#FEFEFF"/>
<rect x="7.88574" y="6.29297" width="15.6934" height="16.1425" rx="5.06947" fill="#1C4F94"/>
<rect x="7.88574" y="6.29297" width="15.6934" height="16.1425" rx="5.06947" fill="#FEFEFF"/>
<path d="M10.9414 11.7695H12.8345C13.3139 11.7695 13.702 11.9186 13.9987 12.2167C14.2975 12.5148 14.4469 12.9072 14.4469 13.3938C14.4469 13.8782 14.2932 14.2706 13.9858 14.5709C13.6783 14.869 13.2784 15.018 12.7861 15.018H11.9153V16.5141H10.9414V11.7695ZM11.9153 12.5554V14.2421H12.5732C12.8527 14.2421 13.0699 14.1686 13.2247 14.0218C13.3795 13.8749 13.4569 13.6667 13.4569 13.3971C13.4569 13.1275 13.3795 12.9203 13.2247 12.7756C13.072 12.6288 12.856 12.5554 12.5765 12.5554H11.9153Z" fill="#1C4F94"/>
<path d="M10.9414 11.7695H12.8345C13.3139 11.7695 13.702 11.9186 13.9987 12.2167C14.2975 12.5148 14.4469 12.9072 14.4469 13.3938C14.4469 13.8782 14.2932 14.2706 13.9858 14.5709C13.6783 14.869 13.2784 15.018 12.7861 15.018H11.9153V16.5141H10.9414V11.7695ZM11.9153 12.5554V14.2421H12.5732C12.8527 14.2421 13.0699 14.1686 13.2247 14.0218C13.3795 13.8749 13.4569 13.6667 13.4569 13.3971C13.4569 13.1275 13.3795 12.9203 13.2247 12.7756C13.072 12.6288 12.856 12.5554 12.5765 12.5554H11.9153Z" fill="#1C4F94"/>
<path d="M16.053 15.8762C16.2615 15.8762 16.4378 15.8148 16.5818 15.6921C16.728 15.5671 16.8011 15.4104 16.8011 15.2219V14.9654L16.0723 15.0115C15.896 15.0246 15.7595 15.0695 15.6627 15.1463C15.5681 15.223 15.5208 15.3238 15.5208 15.4488C15.5208 15.5803 15.5692 15.6844 15.666 15.7611C15.7627 15.8378 15.8917 15.8762 16.053 15.8762ZM15.7434 16.5699C15.4101 16.5699 15.1338 16.4702 14.9145 16.2707C14.6952 16.0713 14.5856 15.8148 14.5856 15.5014C14.5856 15.1813 14.7017 14.9304 14.9339 14.7484C15.1661 14.5665 15.4983 14.4624 15.9304 14.4361L16.8011 14.3835V14.15C16.8011 13.9878 16.7485 13.8607 16.6431 13.7686C16.5399 13.6765 16.3991 13.6305 16.2207 13.6305C16.0487 13.6305 15.9078 13.67 15.7982 13.7489C15.6907 13.8278 15.6251 13.9341 15.6015 14.0678H14.7404C14.7576 13.7215 14.9027 13.4431 15.1758 13.2327C15.4488 13.0201 15.8111 12.9137 16.2626 12.9137C16.7055 12.9137 17.0602 13.0211 17.3268 13.236C17.5934 13.4508 17.7267 13.7357 17.7267 14.0908V16.5141H16.8173V15.9748H16.7979C16.7033 16.159 16.5593 16.3047 16.3658 16.4121C16.1723 16.5173 15.9648 16.5699 15.7434 16.5699Z" fill="#1C4F94"/>
<path d="M16.053 15.8762C16.2615 15.8762 16.4378 15.8148 16.5818 15.6921C16.728 15.5671 16.8011 15.4104 16.8011 15.2219V14.9654L16.0723 15.0115C15.896 15.0246 15.7595 15.0695 15.6627 15.1463C15.5681 15.223 15.5208 15.3238 15.5208 15.4488C15.5208 15.5803 15.5692 15.6844 15.666 15.7611C15.7627 15.8378 15.8917 15.8762 16.053 15.8762ZM15.7434 16.5699C15.4101 16.5699 15.1338 16.4702 14.9145 16.2707C14.6952 16.0713 14.5856 15.8148 14.5856 15.5014C14.5856 15.1813 14.7017 14.9304 14.9339 14.7484C15.1661 14.5665 15.4983 14.4624 15.9304 14.4361L16.8011 14.3835V14.15C16.8011 13.9878 16.7485 13.8607 16.6431 13.7686C16.5399 13.6765 16.3991 13.6305 16.2207 13.6305C16.0487 13.6305 15.9078 13.67 15.7982 13.7489C15.6907 13.8278 15.6251 13.9341 15.6015 14.0678H14.7404C14.7576 13.7215 14.9027 13.4431 15.1758 13.2327C15.4488 13.0201 15.8111 12.9137 16.2626 12.9137C16.7055 12.9137 17.0602 13.0211 17.3268 13.236C17.5934 13.4508 17.7267 13.7357 17.7267 14.0908V16.5141H16.8173V15.9748H16.7979C16.7033 16.159 16.5593 16.3047 16.3658 16.4121C16.1723 16.5173 15.9648 16.5699 15.7434 16.5699Z" fill="#1C4F94"/>
<path d="M18.7587 17.8194C18.5523 17.8194 18.434 17.8161 18.4039 17.8095V17.0697C18.4233 17.0741 18.5018 17.0763 18.6394 17.0763C18.8135 17.0763 18.9457 17.0456 19.036 16.9842C19.1263 16.925 19.1876 16.8253 19.2199 16.685C19.2199 16.6828 19.2252 16.6554 19.236 16.6028C19.2467 16.5502 19.251 16.5217 19.2489 16.5173L18.046 12.9894H19.0812L19.8165 15.7447H19.8326L20.5679 12.9894H21.5612L20.3712 16.593C20.2228 17.0445 20.0272 17.3612 19.7842 17.5432C19.5434 17.7273 19.2016 17.8194 18.7587 17.8194Z" fill="#1C4F94"/>
<path d="M18.7587 17.8194C18.5523 17.8194 18.434 17.8161 18.4039 17.8095V17.0697C18.4233 17.0741 18.5018 17.0763 18.6394 17.0763C18.8135 17.0763 18.9457 17.0456 19.036 16.9842C19.1263 16.925 19.1876 16.8253 19.2199 16.685C19.2199 16.6828 19.2252 16.6554 19.236 16.6028C19.2467 16.5502 19.251 16.5217 19.2489 16.5173L18.046 12.9894H19.0812L19.8165 15.7447H19.8326L20.5679 12.9894H21.5612L20.3712 16.593C20.2228 17.0445 20.0272 17.3612 19.7842 17.5432C19.5434 17.7273 19.2016 17.8194 18.7587 17.8194Z" fill="#1C4F94"/>
<defs>
<linearGradient id="paint0_linear" x1="89.07" y1="54.2782" x2="-13.1922" y2="56.5113" gradientUnits="userSpaceOnUse">
<stop stop-color="#940ADE"/>
<stop offset="1" stop-color="#1C83FF"/>
</linearGradient>
</defs>
</svg>
