<svg width="70" height="50" viewBox="0 0 70 50" fill="none" xmlns="http://www.w3.org/2000/svg">
<rect x="2" y="0.5" width="66" height="49" rx="7.35421" fill="url(#paint0_linear)"/>
<path d="M46.2627 35.0013L43.0256 41.9115H40.9105L39.3103 36.3932C39.2184 36.0493 39.1264 35.9347 38.8321 35.7873C38.3539 35.5581 37.5446 35.3288 36.8457 35.1978L36.9009 35.0013H40.3035C40.7449 35.0013 41.1312 35.2633 41.2231 35.7055L42.0692 39.7009L44.166 35.0013H46.2627ZM54.5946 39.6681C54.5946 37.8505 51.7621 37.7359 51.7805 36.9336C51.7805 36.6879 52.0564 36.4259 52.6266 36.3604C52.9209 36.3277 53.7117 36.2949 54.613 36.6716L54.9624 35.1978C54.4842 35.0505 53.8589 34.8867 53.0864 34.8867C51.1 34.8867 49.7021 35.8201 49.7021 37.1792C49.6837 38.178 50.6953 38.7348 51.4494 39.0623C52.2403 39.4061 52.4978 39.619 52.4978 39.9137C52.4978 40.3722 51.8725 40.5851 51.3023 40.5851C50.2907 40.6015 49.7021 40.3395 49.2423 40.143L48.8745 41.6495C49.3527 41.846 50.2171 42.0097 51.1 42.0097C53.1967 42.0261 54.5762 41.0927 54.5946 39.6681ZM59.8365 41.9115H61.6941L60.0756 35.0013H58.3651C57.9788 35.0013 57.6478 35.1978 57.5006 35.509L54.4842 41.9115H56.5994L57.0224 40.8799H59.5974L59.8365 41.9115ZM57.5926 39.4716L58.641 36.8681L59.2479 39.4716H57.5926ZM49.132 35.0013L47.4766 41.9115H45.4718L47.1272 35.0013H49.132Z" fill="white"/>
<rect x="7" y="6.5" width="33" height="17" rx="5.06947" fill="#1C4F94"/>
<rect x="7" y="6.5" width="33" height="17" rx="5.06947" fill="#FEFEFF"/>
<path d="M15.916 17.6299V18.5H11.1143V10.7495H15.916V11.6196H12.0811V14.1064H15.7173V14.9658H12.0811V17.6299H15.916ZM21.6899 14.7456H20.7769C20.7052 14.4233 20.5459 14.1584 20.2988 13.9507C20.0553 13.743 19.7384 13.6392 19.3481 13.6392C18.8612 13.6392 18.4691 13.8271 18.1719 14.2031C17.8747 14.5755 17.7261 15.0768 17.7261 15.707C17.7261 16.348 17.8747 16.8529 18.1719 17.2217C18.4727 17.5905 18.8683 17.7749 19.3589 17.7749C19.7349 17.7749 20.0446 17.6818 20.2881 17.4956C20.5352 17.3058 20.6999 17.0409 20.7822 16.7007H21.7007C21.6291 17.2593 21.3766 17.7158 20.9434 18.0703C20.5137 18.4212 19.9837 18.5967 19.3535 18.5967C18.5729 18.5967 17.9481 18.3389 17.479 17.8232C17.0099 17.304 16.7754 16.5986 16.7754 15.707C16.7754 14.8298 17.0099 14.1297 17.479 13.6069C17.9481 13.0806 18.5693 12.8174 19.3428 12.8174C20.0088 12.8174 20.5495 13.0054 20.9648 13.3813C21.3838 13.7573 21.6255 14.2121 21.6899 14.7456ZM24.875 18.5967C24.0944 18.5967 23.4678 18.3371 22.9951 17.8179C22.5225 17.2951 22.2861 16.5915 22.2861 15.707C22.2861 14.8226 22.5225 14.1208 22.9951 13.6016C23.4678 13.0788 24.0944 12.8174 24.875 12.8174C25.652 12.8174 26.2769 13.0788 26.7495 13.6016C27.2222 14.1208 27.4585 14.8226 27.4585 15.707C27.4585 16.5879 27.2222 17.2897 26.7495 17.8125C26.2769 18.3353 25.652 18.5967 24.875 18.5967ZM23.6772 17.2271C23.9744 17.5923 24.3737 17.7749 24.875 17.7749C25.3763 17.7749 25.7738 17.5941 26.0674 17.2324C26.361 16.8672 26.5078 16.3587 26.5078 15.707C26.5078 15.0553 26.361 14.5487 26.0674 14.187C25.7738 13.8218 25.3763 13.6392 24.875 13.6392C24.3737 13.6392 23.9744 13.8218 23.6772 14.187C23.3836 14.5522 23.2368 15.0589 23.2368 15.707C23.2368 16.3551 23.3836 16.8618 23.6772 17.2271ZM28.4038 18.5V12.9141H29.2847V13.8057H29.3062C29.4422 13.5013 29.6481 13.2614 29.9238 13.0859C30.1995 12.9069 30.5218 12.8174 30.8906 12.8174C31.2702 12.8174 31.596 12.9105 31.8682 13.0967C32.1403 13.2793 32.3372 13.5407 32.459 13.8809H32.4805C32.6344 13.5479 32.8654 13.2882 33.1733 13.1021C33.4849 12.9123 33.8376 12.8174 34.2314 12.8174C34.7829 12.8174 35.2233 12.9839 35.5527 13.3169C35.8857 13.6463 36.0522 14.0885 36.0522 14.6436V18.5H35.1177V14.8584C35.1177 14.4753 35.0156 14.1781 34.8115 13.9668C34.611 13.752 34.3263 13.6445 33.9575 13.6445C33.5887 13.6445 33.2861 13.7681 33.0498 14.0151C32.8135 14.2586 32.6953 14.5701 32.6953 14.9497V18.5H31.7607V14.7563C31.7607 14.4198 31.6569 14.1512 31.4492 13.9507C31.2415 13.7466 30.964 13.6445 30.6167 13.6445C30.2479 13.6445 29.9417 13.7734 29.6982 14.0312C29.4583 14.2891 29.3384 14.6113 29.3384 14.998V18.5H28.4038Z" fill="#465AF4"/>
<defs>
<linearGradient id="paint0_linear" x1="89.07" y1="56.15" x2="-13.1955" y2="58.3081" gradientUnits="userSpaceOnUse">
<stop stop-color="#940ADE"/>
<stop offset="1" stop-color="#1C83FF"/>
</linearGradient>
</defs>
</svg>
